<?xml version="1.0" encoding="utf-8"?>
<!-- Generator: Adobe Illustrator 24.0.3, SVG Export Plug-In . SVG Version: 6.00 Build 0)  -->
<svg version="1.1" id="Layer_1" xmlns="http://www.w3.org/2000/svg" xmlns:xlink="http://www.w3.org/1999/xlink" x="0px" y="0px"
	 viewBox="0 0 432 169.9" style="enable-background:new 0 0 432 169.9;" xml:space="preserve">
<style type="text/css">
	.st0{fill:#4C81C2;}
	.st1{fill:#232022;}
</style>
<title>Aippi-logo</title>
<g>
	<path class="st0" d="M179.8,49.7c0.1-1.5,0.6-3,1.1-4.4c1.7-5.4,4.3-10.5,7.8-15c1.6-2.1,3.3-4,5.3-5.8c4.6-4.3,10.1-7.5,16-9.7
		c3.9-1.4,7.9-2.2,12-2.6c6.1-0.5,12.2,0.2,18,2c5.3,1.6,10.2,4.2,14.5,7.6c6.6,5.1,11.8,11.8,14.9,19.5c1.6,3.9,2.6,8,3.1,12.2
		c0.3,2.8,0.4,5.7,0.2,8.6c-1.1,16.9-11.2,32-26.5,39.4c-4.5,2.2-9.4,3.7-14.4,4.3c-2.5,0.3-5,0.4-7.5,0.4c-5-0.1-9.9-1-14.6-2.7
		c-4.6-1.7-8.9-4-12.8-7c-2.3-1.8-4.5-3.8-6.5-6.1c-6-6.9-10-15.4-11.2-24.5c-0.4-2.2-0.5-4.5-0.4-6.7l0,0c3.3,0,6.7,0,10,0
		c0.7,0,0.8-0.2,0.8-0.8c0-2.9,0-5.7,0-8.6h8.5c0,0.1,0,0.2,0,0.2c-0.7,2.3-1.2,4.7-1.4,7.2c-0.2,3.6,0.2,7.2,1.3,10.7
		c0.2,0.6,0,0.7-0.6,0.7c-2.4,0-4.7,0-7.1,0c-0.6,0-0.7,0.2-0.7,0.7c0,2.7,0,5.3,0,8c0,0.6,0.2,0.7,0.8,0.7c3.8,0,7.6,0,11.4,0h1.6
		c0-0.1-0.1-0.2-0.2-0.3c-2.1-2.5-3.7-5.3-4.8-8.3c-0.2-0.6-0.2-0.8,0.5-0.8c8.7,0,17.4,0,26.1,0c0.7,0,0.8,0.2,0.8,0.8
		c0,2.6,0,5.1,0,7.7c0,0.7-0.2,0.9-0.9,0.9c-6.8,0-13.6,0-20.4,0c-0.3,0-0.6-0.1-0.8,0.1c10.5,12.2,28.9,13.6,41.2,3.1
		S258.5,52.2,248,40c-5.4-6.2-13.1-9.9-21.4-10.2c-8.9-0.3-17.5,3.6-23.2,10.5h12.2c0.4,0,0.7-0.1,0.7,0.5c0,3,0,5.9-0.1,8.9l0,0
		l-18.3,0c1.2-3.4,3-6.6,5.3-9.4c-4.5,0-8.8,0-13.1,0c-0.6,0-0.6,0.3-0.6,0.7c0,2.9,0,5.8,0,8.7L179.8,49.7L179.8,49.7z"/>
	<path class="st1" d="M153.7,157.8h-2.3c-3.7,0-7.3,0-11,0c-0.6,0-0.9-0.2-1-0.8c-0.2-0.9-0.6-1.9-0.8-2.8c0-0.3-0.3-0.5-0.6-0.5
		c0,0,0,0-0.1,0c-3.5,0-6.9,0-10.4,0c-0.4,0-0.6,0.1-0.7,0.5c-0.2,1-0.6,2-0.9,3c-0.1,0.4-0.2,0.5-0.6,0.5c-4.4,0-8.8,0-13.2,0
		c0,0-0.1,0-0.2-0.1c0.8-2.1,1.6-4.2,2.5-6.2c3.4-8.5,6.8-17.1,10.2-25.6c0.3-0.7,0.6-1,1.4-1c4.5,0,9,0,13.5,0
		c0.4-0.1,0.8,0.2,0.9,0.6c4,9.7,8,19.4,12,29.2C152.9,155.7,153.3,156.7,153.7,157.8z M132.8,146.9h3.1c1,0,1,0,0.7-0.9l-3.4-10.5
		c-0.1-0.2-0.1-0.5-0.4-0.5c-0.3,0-0.4,0.3-0.5,0.6c-1.2,3.6-2.3,7.2-3.5,10.9c-0.1,0.4-0.1,0.6,0.4,0.6
		C130.5,146.8,131.6,146.9,132.8,146.9z"/>
	<path class="st1" d="M205.7,141.3c0-5.2,0-10.4,0-15.6c0-0.7,0.2-0.9,0.9-0.9c5.5,0,11,0,16.6,0c3.6,0,7.2,0.6,10.3,2.6
		c2.9,1.8,4.5,4.5,4.9,7.9c0.4,3.1-0.1,6-2.1,8.5c-1.7,2.2-4,3.2-6.7,3.8c-2.2,0.5-4.5,0.3-6.7,0.3c-1.3,0-2.5,0-3.8,0
		c-0.6,0-0.7,0.2-0.7,0.7c0,2.8,0,5.6,0,8.4c0,0.6-0.1,0.7-0.7,0.7c-3.7,0-7.4,0-11.1,0c-0.6,0-0.8-0.1-0.7-0.7
		C205.7,151.8,205.7,146.6,205.7,141.3z M218.3,136.6L218.3,136.6v3.6c0,0.3,0,0.5,0.4,0.5c1.2,0,2.5,0.1,3.7-0.1
		c1.7-0.1,3.1-1.2,3.8-2.7c0.9-2-0.1-4.1-2.5-5.1c-1.6-0.7-3.2-0.4-4.9-0.5c-0.5,0-0.7,0.1-0.7,0.6
		C218.3,134.3,218.3,135.5,218.3,136.6z"/>
	<path class="st1" d="M256,141.4c0-5.3,0-10.5,0-15.7c0-0.7,0.2-0.8,0.8-0.8c5.6,0,11.1,0,16.7,0c3.3,0,6.5,0.5,9.5,2.1
		c4.4,2.3,6.2,6.8,5.6,11.4c-0.6,5.7-4.7,8.7-9.9,9.3c-3.1,0.4-6.2,0.1-9.4,0.2c-0.8,0-0.9,0.2-0.9,0.9c0,2.8,0,5.5,0,8.3
		c0,0.6-0.2,0.7-0.7,0.7c-3.7,0-7.4,0-11.1,0c-0.6,0-0.8-0.1-0.8-0.8c0-2.6,0-5.2,0-7.8L256,141.4z M268.6,136.6c0,1.2,0,2.4,0,3.7
		c0,0.2-0.1,0.6,0.3,0.6c1.8,0,3.6,0.3,5.3-0.5c2.2-1,3.3-3.2,2.4-5.1c-0.6-1.3-1.7-2-3.1-2.4c-1.4-0.4-2.9-0.2-4.3-0.3
		c-0.5,0-0.7,0.1-0.7,0.6C268.6,134.3,268.6,135.5,268.6,136.6L268.6,136.6z"/>
	<path class="st1" d="M306.8,141.3c0-5.2,0-10.4,0-15.7c0-0.6,0.2-0.8,0.8-0.8c3.9,0,7.7,0,11.6,0c0.6,0,0.8,0.2,0.8,0.8
		c0,10.5,0,20.9,0,31.4c0,0.6-0.2,0.7-0.7,0.7c-3.9,0-7.8,0-11.7,0c-0.6,0-0.7-0.1-0.7-0.7C306.9,151.8,306.8,146.6,306.8,141.3
		L306.8,141.3z"/>
	<path class="st1" d="M183.6,141.4c0,5.2,0,10.4,0,15.7c0,0.6-0.1,0.8-0.7,0.8c-3.9,0-7.8,0-11.7,0c-0.5,0-0.7-0.1-0.7-0.7
		c0-10.5,0-21,0-31.5c0-0.6,0.2-0.7,0.8-0.7c3.9,0,7.7,0,11.6,0c0.6,0,0.7,0.2,0.7,0.7C183.6,130.9,183.6,136.1,183.6,141.4z"/>
	<path class="st0" d="M150.7,68.5c-0.3,0-0.6,0-0.9,0c-11.9,0-23.8,0-35.7,0c-1.1,0-1,0.1-1-1c0-2.6,0-5.1,0-7.7
		c0-0.5,0.1-0.7,0.7-0.7c12.1,0,24.2,0,36.3,0c0.5,0,0.7,0.1,0.7,0.7C150.6,62.7,150.7,65.6,150.7,68.5L150.7,68.5z"/>
	<path class="st0" d="M178.8,59.1c-2.4,0-4.9,0-7.3,0c-3.6,0-7.2,0-10.7,0c-0.6,0-0.8-0.1-0.8-0.7c0-2.7,0-5.4,0-8
		c0-0.5,0-0.7,0.6-0.7c6.3,0,12.6,0,18.9,0c0.1,0,0.2,0,0.2,0l0,0C179.1,52.8,178.8,55.9,178.8,59.1L178.8,59.1z"/>
	<path class="st0" d="M291.5,59.1c-2.9,0-5.7,0-8.6,0c-0.6,0-0.8-0.1-0.8-0.8c0-2.7,0-5.4,0-8c0-0.5,0.1-0.7,0.6-0.7
		c5.8,0,11.7,0,17.5,0c0.6,0,0.7,0.2,0.7,0.7c0,2.7,0,5.4,0,8c0,0.6-0.2,0.7-0.8,0.7C297.3,59.1,294.4,59.1,291.5,59.1z"/>
	<path class="st0" d="M150.6,68.5c6,0,12,0,18.1,0c0.6,0,0.7,0.2,0.7,0.8c0,2.7,0,5.3,0,8c0,0.6-0.2,0.7-0.8,0.7
		c-5.8,0-11.5,0-17.3,0c-0.6,0-0.8-0.1-0.8-0.8C150.7,74.3,150.6,71.4,150.6,68.5L150.6,68.5z"/>
	<path class="st0" d="M315,68.5c-1.4,0-2.8,0-4.2,0c-0.5,0-0.7-0.1-0.6-0.6c0-2.8,0-5.5,0-8.3c0-0.4,0.1-0.6,0.6-0.6
		c2.9,0,5.8,0,8.7,0c0.5,0,0.6,0.2,0.6,0.6c0,2.8,0,5.5,0,8.3c0,0.5-0.2,0.6-0.7,0.6C317.9,68.5,316.4,68.5,315,68.5z"/>
	<path class="st0" d="M145.9,49.7c-1.4,0-2.8,0-4.2,0c-0.5,0-0.6-0.1-0.6-0.6c0-2.7,0-5.5,0-8.2c0-0.5,0.1-0.6,0.6-0.6
		c2.8,0,5.7,0,8.5,0c0.5,0,0.6,0.1,0.6,0.6c0,2.7,0,5.5,0,8.2c0,0.5-0.1,0.6-0.6,0.6C148.8,49.7,147.3,49.7,145.9,49.7z"/>
	<path class="st0" d="M216.4,49.7c0.8,0,1.6,0,2.5,0c5.2,0,10.3,0,15.5,0c0.7,0,0.9,0.2,0.9,0.9c0,2.6,0,5.2,0,7.9
		c0,0.5-0.1,0.7-0.7,0.7c-5.8,0-11.6,0-17.4,0c-0.5,0-0.7-0.1-0.7-0.7C216.4,55.5,216.4,52.6,216.4,49.7L216.4,49.7z"/>
</g>
</svg>
