<?xml version="1.0" encoding="utf-8"?>
<!-- Generator: Adobe Illustrator 24.0.3, SVG Export Plug-In . SVG Version: 6.00 Build 0)  -->
<svg version="1.1" id="Layer_1" xmlns="http://www.w3.org/2000/svg" xmlns:xlink="http://www.w3.org/1999/xlink" x="0px" y="0px"
	 viewBox="0 0 203.9 20.48" style="enable-background:new 0 0 203.9 20.48;" xml:space="preserve">
<style type="text/css">
	.st0{fill:#B6B6B6;}
</style>
<g>
	<g>
		<path class="st0" d="M24.66,9.5c0-3.91,2.91-6.71,6.65-6.71c2.05,0,3.84,0.76,5.05,2.18l-1.48,1.31
			c-0.84-1.04-2.11-1.65-3.57-1.65c-2.66,0-4.69,1.98-4.69,4.86s2.03,4.88,4.69,4.88c1.52,0,2.79-0.67,3.63-1.73l1.5,1.29
			c-1.22,1.44-3.06,2.28-5.13,2.28C27.57,16.23,24.66,13.4,24.66,9.5z"/>
		<path class="st0" d="M47.19,13.05h-6.14l-1.25,2.93h-2.18l5.64-12.96h1.73l5.66,12.96h-2.2L47.19,13.05z M44.12,5.59
			c-0.74,1.88-1.48,3.72-2.26,5.6h4.56c-0.78-1.88-1.52-3.72-2.26-5.6H44.12z"/>
		<path class="st0" d="M56.77,16.23c-1.73,0-3.67-0.61-4.88-1.56l1.14-1.58c1.04,0.78,2.3,1.27,3.74,1.27
			c1.88,0,2.77-0.85,2.77-1.82c0-0.99-0.8-1.69-3.23-2.22c-3.04-0.68-4.25-2.09-4.25-3.93c0-1.96,1.58-3.59,4.67-3.59
			c1.75,0,3.59,0.55,4.81,1.44l-1.14,1.6c-1.06-0.76-2.22-1.18-3.67-1.18c-1.9,0-2.72,0.76-2.72,1.69c0,0.89,0.7,1.61,3.08,2.17
			c3.23,0.76,4.41,2.07,4.41,3.97C61.5,14.4,60.19,16.23,56.77,16.23z"/>
		<path class="st0" d="M63.5,9.5c0-3.91,2.91-6.71,6.65-6.71c2.05,0,3.84,0.76,5.05,2.18l-1.48,1.31c-0.84-1.04-2.11-1.65-3.57-1.65
			c-2.66,0-4.69,1.98-4.69,4.86s2.03,4.88,4.69,4.88c1.52,0,2.79-0.67,3.63-1.73l1.5,1.29c-1.22,1.44-3.06,2.28-5.13,2.28
			C66.4,16.23,63.5,13.4,63.5,9.5z"/>
		<path class="st0" d="M83.82,16.23c-3.74,0-6.65-2.83-6.65-6.73c0-3.91,2.91-6.71,6.65-6.71c3.72,0,6.63,2.79,6.63,6.71
			C90.45,13.4,87.55,16.23,83.82,16.23z M83.82,4.64c-2.66,0-4.69,1.98-4.69,4.86s2.03,4.88,4.69,4.88c2.64,0,4.67-1.99,4.67-4.88
			S86.46,4.64,83.82,4.64z"/>
		<path class="st0" d="M96.35,12.52c0-1.22,0.49-2.41,2.39-3.72c-0.74-0.99-1.2-1.92-1.2-2.96c0-1.77,1.22-3.04,3.27-3.04
			s3.27,1.37,3.27,2.96c0,1.44-0.89,2.51-2.51,3.51c0.97,1.12,1.67,1.9,2.43,2.66h0.04c0.25-0.67,0.44-1.48,0.53-2.45l1.84,0.27
			c-0.17,1.42-0.49,2.55-1.01,3.51c0.51,0.46,1.04,0.95,1.71,1.54l-1.29,1.42c-0.59-0.53-1.12-1.01-1.56-1.44
			c-1.03,0.97-2.28,1.44-3.76,1.44C98.17,16.23,96.35,14.74,96.35,12.52z M102.98,13.55c-1.06-1.04-1.96-1.98-3.04-3.29
			c-1.16,0.76-1.69,1.42-1.69,2.32c0,1.14,1.03,1.84,2.3,1.84C101.44,14.42,102.27,14.21,102.98,13.55z M99.44,5.89
			c0,0.65,0.17,1.01,0.93,1.92c1.23-0.74,1.8-1.22,1.8-1.98c0-0.68-0.53-1.23-1.37-1.23S99.44,5.13,99.44,5.89z"/>
		<path class="st0" d="M112.91,9.5c0-3.91,2.91-6.71,6.65-6.71c2.05,0,3.84,0.76,5.05,2.18l-1.48,1.31
			c-0.84-1.04-2.11-1.65-3.57-1.65c-2.66,0-4.69,1.98-4.69,4.86s2.03,4.88,4.69,4.88c1.52,0,2.79-0.67,3.63-1.73l1.5,1.29
			c-1.22,1.44-3.06,2.28-5.13,2.28C115.82,16.23,112.91,13.4,112.91,9.5z"/>
		<path class="st0" d="M135.45,13.05h-6.14l-1.25,2.93h-2.18l5.64-12.96h1.73l5.66,12.96h-2.2L135.45,13.05z M132.37,5.59
			c-0.74,1.88-1.48,3.72-2.26,5.6h4.56c-0.78-1.88-1.52-3.72-2.26-5.6H132.37z"/>
		<path class="st0" d="M145.02,16.23c-1.73,0-3.67-0.61-4.88-1.56l1.14-1.58c1.04,0.78,2.3,1.27,3.74,1.27
			c1.88,0,2.77-0.85,2.77-1.82c0-0.99-0.8-1.69-3.23-2.22c-3.04-0.68-4.25-2.09-4.25-3.93c0-1.96,1.58-3.59,4.67-3.59
			c1.75,0,3.59,0.55,4.81,1.44l-1.14,1.6c-1.06-0.76-2.22-1.18-3.67-1.18c-1.9,0-2.72,0.76-2.72,1.69c0,0.89,0.7,1.61,3.08,2.17
			c3.23,0.76,4.41,2.07,4.41,3.97C149.75,14.4,148.44,16.23,145.02,16.23z"/>
		<path class="st0" d="M151.75,9.5c0-3.91,2.91-6.71,6.65-6.71c2.05,0,3.84,0.76,5.05,2.18l-1.48,1.31
			c-0.84-1.04-2.11-1.65-3.57-1.65c-2.66,0-4.69,1.98-4.69,4.86s2.03,4.88,4.69,4.88c1.52,0,2.79-0.67,3.63-1.73l1.5,1.29
			c-1.22,1.44-3.06,2.28-5.13,2.28C154.65,16.23,151.75,13.4,151.75,9.5z"/>
		<path class="st0" d="M172.08,16.23c-3.74,0-6.65-2.83-6.65-6.73c0-3.91,2.91-6.71,6.65-6.71c3.72,0,6.63,2.79,6.63,6.71
			C178.71,13.4,175.8,16.23,172.08,16.23z M172.08,4.64c-2.66,0-4.69,1.98-4.69,4.86s2.03,4.88,4.69,4.88
			c2.64,0,4.67-1.99,4.67-4.88S174.72,4.64,172.08,4.64z"/>
	</g>
	<g>
		<g>
			<rect x="183.14" y="9.28" class="st0" width="20.75" height="1"/>
		</g>
		<g>
			<rect y="9.28" class="st0" width="20.75" height="1"/>
		</g>
	</g>
</g>
</svg>
