<?xml version="1.0" encoding="utf-8"?>
<!-- Generator: Adobe Illustrator 24.0.3, SVG Export Plug-In . SVG Version: 6.00 Build 0)  -->
<svg version="1.1" id="Layer_1" xmlns="http://www.w3.org/2000/svg" xmlns:xlink="http://www.w3.org/1999/xlink" x="0px" y="0px"
	 viewBox="0 0 203.9 20.5" style="enable-background:new 0 0 203.9 20.5;" xml:space="preserve">
<style type="text/css">
	.st0{fill:#B6B6B6;}
</style>
<g>
	<g>
		<g>
			<rect y="9.3" class="st0" width="35.8" height="1"/>
		</g>
	</g>
	<g>
		<g>
			<rect x="168.5" y="9.3" class="st0" width="35.8" height="1"/>
		</g>
	</g>
	<g>
		<path class="st0" d="M48.1,16.7h-8.4V3.8h1.9v11h6.4V16.7z"/>
		<path class="st0" d="M58.9,16.7h-8.7V3.8h8.5v1.8h-6.5v3.6h6v1.8h-6v3.7h6.7V16.7z"/>
		<path class="st0" d="M67.4,16.7h-1.9v-5.4l-5-7.4h2.3l3.6,5.7h0l3.6-5.7h2.3l-5,7.4V16.7z"/>
		<path class="st0" d="M86.7,5.7h-6.4v3.8h5.9v1.8h-5.9v5.4h-1.9V3.8h8.4V5.7z"/>
		<path class="st0" d="M97.4,13.8h-6.1l-1.2,2.9h-2.2l5.6-12.9h1.7l5.6,12.9h-2.2L97.4,13.8z M93.2,9.1c-0.4,0.9-0.8,1.9-1.1,2.8
			h4.5c-0.4-0.9-0.8-1.9-1.1-2.8c-0.4-0.9-0.7-1.9-1.1-2.8h0C94,7.3,93.6,8.2,93.2,9.1z"/>
		<path class="st0" d="M116.5,16.7h-2l-0.4-6.7c0-0.5-0.1-1-0.1-1.5c0-0.5,0-0.9-0.1-1.3h0c-0.3,0.5-0.5,0.9-0.7,1.2
			c-0.2,0.3-0.3,0.6-0.4,0.8c-0.1,0.2-0.2,0.4-0.3,0.5l-2.9,4.8h-0.2l-3-4.8c-0.1-0.1-0.2-0.3-0.3-0.5c-0.1-0.2-0.3-0.5-0.4-0.8
			c-0.2-0.3-0.4-0.7-0.7-1.2h0c0,0.4,0,0.8-0.1,1.3c0,0.5,0,1-0.1,1.5l-0.4,6.7h-2l0.8-12.9h1.8l4.4,7.1h0l4.4-7.1h1.8L116.5,16.7z"
			/>
		<path class="st0" d="M121.5,16.7h-1.9V3.8h1.9V16.7z"/>
		<path class="st0" d="M133.1,16.7h-8.4V3.8h1.9v11h6.4V16.7z"/>
		<path class="st0" d="M137.2,16.7h-1.9V3.8h1.9V16.7z"/>
		<path class="st0" d="M148.6,13.8h-6.1l-1.2,2.9h-2.2l5.6-12.9h1.7l5.6,12.9h-2.2L148.6,13.8z M144.4,9.1c-0.4,0.9-0.8,1.9-1.1,2.8
			h4.5c-0.4-0.9-0.8-1.9-1.1-2.8c-0.4-0.9-0.7-1.9-1.1-2.8h0C145.2,7.3,144.8,8.2,144.4,9.1z"/>
		<path class="st0" d="M155.9,11.6v5.1h-1.9V3.8h5.6c0.7,0,1.3,0.1,1.8,0.3c0.5,0.2,1,0.5,1.4,0.8c0.4,0.3,0.7,0.7,0.8,1.2
			c0.2,0.5,0.3,1,0.3,1.6c0,0.9-0.2,1.7-0.7,2.3s-1.1,1.1-2,1.3l3,5.3h-2.3l-2.7-5.1H155.9z M155.9,9.7h3.7c0.8,0,1.4-0.2,1.8-0.6
			c0.4-0.4,0.6-0.9,0.6-1.5c0-0.6-0.2-1.1-0.6-1.5c-0.4-0.4-1-0.6-1.8-0.6h-3.7V9.7z"/>
	</g>
</g>
</svg>
