<?xml version="1.0" encoding="utf-8"?>
<!-- Generator: Adobe Illustrator 24.0.3, SVG Export Plug-In . SVG Version: 6.00 Build 0)  -->
<svg version="1.1" id="Layer_1" xmlns="http://www.w3.org/2000/svg" xmlns:xlink="http://www.w3.org/1999/xlink" x="0px" y="0px"
	 viewBox="0 0 26 26" style="enable-background:new 0 0 26 26;" xml:space="preserve">
<style type="text/css">
	.st0{fill:#FFFFFF;}
</style>
<path class="st0" d="M13,6.5c-3.57,0-6.5,2.93-6.5,6.5s2.93,6.5,6.5,6.5h6.5c3.58,0,6.5-2.92,6.5-6.5c0-7.18-5.82-13-13-13
	S0,5.82,0,13s5.82,13,13,13h13v-3.25H13c-5.39,0-9.75-4.35-9.75-9.75S7.61,3.25,13,3.25s9.75,4.36,9.75,9.75
	c0,1.79-1.46,3.25-3.25,3.25h-0.91c0.55-0.98,0.91-2.05,0.91-3.25C19.5,9.43,16.58,6.5,13,6.5z M13,16.25
	c-1.79,0-3.25-1.46-3.25-3.25S11.21,9.75,13,9.75s3.25,1.46,3.25,3.25S14.79,16.25,13,16.25z"/>
</svg>
