<?xml version="1.0" encoding="utf-8"?>
<!-- Generator: Adobe Illustrator 24.0.3, SVG Export Plug-In . SVG Version: 6.00 Build 0)  -->
<svg version="1.1" id="Layer_1" xmlns="http://www.w3.org/2000/svg" xmlns:xlink="http://www.w3.org/1999/xlink" x="0px" y="0px"
	 viewBox="0 0 29.4 29.4" style="enable-background:new 0 0 29.4 29.4;" xml:space="preserve">
<style type="text/css">
	.st0{fill:#FFFFFF;}
</style>
<g>
	<path class="st0" d="M5.33,25.73h0.49c1.29,0,2.39-1.04,2.39-2.39v-0.67c0-0.55-0.18-1.1-0.55-1.53c-0.37-0.43-0.55-0.98-0.55-1.53
		v-4.47c0-0.61,0.24-1.16,0.61-1.59c0.37-0.43,0.55-0.92,0.55-1.47v-0.67C8.27,10.11,7.23,9,5.88,9H5.33
		c-1.29,0-2.39,1.04-2.39,2.39v0.67c0,0.61,0.24,1.16,0.61,1.59c0.37,0.43,0.55,0.92,0.55,1.47v4.47c0,0.61-0.25,1.16-0.61,1.59
		s-0.55,0.92-0.55,1.47v0.67C2.94,24.68,3.98,25.73,5.33,25.73z"/>
	<path class="st0" d="M27.56,9H26.7V0.61C26.7,0.25,26.46,0,26.09,0H11.09c-0.37,0-0.61,0.25-0.61,0.61V9H8.45
		C9,9.62,9.37,10.47,9.37,11.33v0.67c0,0.86-0.31,1.71-0.86,2.33c-0.18,0.18-0.24,0.49-0.24,0.74v4.53c0,0.25,0.12,0.55,0.24,0.74
		c0.55,0.67,0.86,1.47,0.86,2.33v0.67c0,1.96-1.59,3.55-3.55,3.55H5.27c-1.96,0-3.55-1.59-3.55-3.55v-0.67
		c0-0.86,0.31-1.71,0.86-2.33c0.18-0.18,0.31-0.49,0.31-0.74v-4.53c0-0.24-0.12-0.55-0.31-0.74c-0.55-0.61-0.86-1.47-0.86-2.33
		v-0.67c0-0.92,0.37-1.72,0.92-2.33h-0.8C0.8,9,0,9.8,0,10.84v16.72c0,1.04,0.8,1.84,1.84,1.84h25.73c1.04,0,1.84-0.8,1.84-1.84
		V10.84C29.4,9.86,28.6,9,27.56,9z M11.7,1.23h13.78V9H11.7V1.23z M16.91,27.69h-2.08V25.6h2.08V27.69z M16.91,24.44h-2.08v-2.08
		h2.08V24.44z M16.91,21.25h-2.08v-2.08h2.08V21.25z M20.7,27.69h-2.08V25.6h2.08V27.69z M20.7,24.44h-2.08v-2.08h2.08V24.44z
		 M20.7,21.25h-2.08v-2.08h2.08V21.25z M24.44,27.69h-2.08V25.6h2.08V27.69z M24.44,24.44h-2.08v-2.08h2.08V24.44z M24.44,21.25
		h-2.08v-2.08h2.08V21.25z M26.22,17.09H13.11v-5.64h13.11V17.09z"/>
	<path class="st0" d="M23.7,3.06H13.48c-0.37,0-0.61,0.24-0.61,0.61s0.24,0.61,0.61,0.61H23.7c0.37,0,0.61-0.25,0.61-0.61
		S24.01,3.06,23.7,3.06z"/>
	<path class="st0" d="M23.7,6H13.48c-0.37,0-0.61,0.24-0.61,0.61c0,0.37,0.24,0.61,0.61,0.61H23.7c0.37,0,0.61-0.24,0.61-0.61
		C24.32,6.25,24.01,6,23.7,6z"/>
</g>
</svg>
