<?xml version="1.0" encoding="utf-8"?>
<!-- Generator: Adobe Illustrator 24.0.3, SVG Export Plug-In . SVG Version: 6.00 Build 0)  -->
<svg version="1.1" id="Layer_1" xmlns="http://www.w3.org/2000/svg" xmlns:xlink="http://www.w3.org/1999/xlink" x="0px" y="0px"
	 viewBox="0 0 431.6 169.7" style="enable-background:new 0 0 431.6 169.7;" xml:space="preserve">
<style type="text/css">
	.st0{fill:#BDBFC1;}
	.st1{fill:#E37534;}
</style>
<title>inta_logo</title>
<g>
	<rect x="193.4" y="61.4" class="st0" width="4" height="22.8"/>
	<path class="st0" d="M203.7,67.7h3.5v2.4c0.6-0.9,1.3-1.6,2.2-2.1c2.3-1.3,5.2-1,7.2,0.6c1.1,0.9,1.6,2.3,1.6,4.2v11.4h-3.6V73.9
		c0-1-0.3-2-0.9-2.8c-0.6-0.7-1.5-1-2.4-0.9c-0.6,0-1.1,0.1-1.6,0.3c-0.5,0.2-0.9,0.5-1.3,0.9c-0.3,0.4-0.6,0.9-0.8,1.4
		c-0.2,0.5-0.3,1.1-0.3,1.7v9.8h-3.6"/>
	<path class="st0" d="M248,74.5c-0.1-0.5-0.2-1.1-0.4-1.6c-0.2-0.5-0.5-1-0.8-1.4c-0.4-0.4-0.8-0.7-1.3-1c-1.1-0.4-2.3-0.4-3.4,0
		c-0.5,0.2-1,0.5-1.4,0.9c-0.3,0.4-0.6,0.9-0.9,1.4c-0.2,0.5-0.3,1.1-0.3,1.7 M239.4,76.9c0,0.6,0.1,1.3,0.3,1.9
		c0.1,0.6,0.4,1.2,0.8,1.6c0.3,0.4,0.8,0.8,1.3,1c1.5,0.6,3.2,0.5,4.6-0.3c0.7-0.5,1.1-1.2,1.4-2h3.5c-0.2,0.9-0.5,1.7-1,2.4
		c-0.4,0.7-1,1.2-1.7,1.7c-0.7,0.5-1.4,0.9-2.2,1.1c-2,0.6-4.1,0.5-6-0.3c-1-0.4-1.9-0.9-2.6-1.7c-0.7-0.8-1.2-1.8-1.5-2.8
		c-0.4-1.1-0.6-2.3-0.6-3.5c0-1.1,0.2-2.3,0.6-3.4c0.4-1,0.9-1.9,1.6-2.8c0.7-0.8,1.6-1.4,2.5-1.9c1-0.5,2.2-0.7,3.4-0.7
		c1.2,0,2.4,0.3,3.5,0.8c1,0.6,1.9,1.3,2.6,2.2c0.7,0.9,1.2,1.9,1.5,3c0.3,1.2,0.4,2.4,0.2,3.6L239.4,76.9z"/>
	<path class="st0" d="M256.2,67.7h3.4v3.1h0.1c0.1-0.5,0.3-0.9,0.6-1.3c0.3-0.4,0.7-0.8,1.1-1.1c0.4-0.4,0.9-0.7,1.5-0.9
		c0.5-0.2,1.1-0.3,1.6-0.3h0.9c0.2,0.1,0.3,0.1,0.5,0.1v3.5c-0.3,0-0.5-0.1-0.8-0.1h-0.8c-0.6,0-1.1,0.1-1.7,0.3
		c-0.5,0.3-1,0.6-1.3,1.1c-0.4,0.6-0.8,1.2-1,1.8c-0.2,0.8-0.3,1.6-0.3,2.4v7.9h-3.7"/>
	<path class="st0" d="M270,67.7h3.4v2.4h0.1c0.5-0.9,1.3-1.6,2.2-2.1c0.9-0.5,1.9-0.8,2.9-0.8c1.6-0.1,3.1,0.4,4.3,1.4
		c1.1,1.1,1.7,2.6,1.6,4.2v11.4h-3.7V73.9c0.1-1-0.2-2-0.8-2.8c-0.6-0.7-1.5-1-2.4-0.9c-0.6,0-1.1,0.1-1.7,0.3
		c-0.5,0.2-0.9,0.5-1.2,0.9c-0.3,0.4-0.6,0.9-0.8,1.4c-0.2,0.5-0.3,1.1-0.3,1.7v9.8H270"/>
	<path class="st0" d="M300.5,76c-0.6,0.4-1.3,0.6-2,0.6c-0.8,0.1-1.6,0.2-2.4,0.4c-0.4,0-0.8,0.1-1.2,0.2c-0.3,0.2-0.6,0.3-0.9,0.5
		c-0.3,0.2-0.5,0.5-0.7,0.8c-0.1,0.4-0.2,0.8-0.2,1.2c0,0.4,0.1,0.7,0.3,1c0.3,0.3,0.6,0.5,0.9,0.7c0.4,0.2,0.7,0.3,1.1,0.3
		c0.3,0.1,0.7,0.1,1,0.1c0.4,0,0.9,0,1.3-0.1c0.5-0.1,1-0.3,1.4-0.6c0.4-0.3,0.8-0.6,1-1c0.3-0.4,0.5-0.9,0.4-1.4 M304.2,80.6
		c0,0.3,0,0.6,0.1,0.9c0.2,0.2,0.4,0.3,0.7,0.3h0.9v2.5c-0.2,0-0.3,0.1-0.5,0.1c-0.2,0.1-0.4,0.1-0.6,0.2c-0.2,0-0.4,0-0.6,0.1h-0.6
		c-0.6,0-1.3-0.2-1.8-0.5c-0.6-0.3-0.9-0.9-1-1.5c-0.8,0.7-1.7,1.3-2.7,1.5c-1,0.3-2,0.5-3,0.5c-0.7,0-1.4-0.1-2.1-0.3
		c-0.7-0.2-1.3-0.5-1.8-0.9c-0.6-0.4-1-0.9-1.3-1.5c-0.7-1.5-0.7-3.2,0.1-4.6c0.4-0.6,0.9-1.1,1.5-1.5c0.6-0.4,1.3-0.7,2-0.8
		c0.8-0.2,1.5-0.3,2.3-0.4c0.6-0.1,1.3-0.2,1.9-0.2c0.6-0.1,1.1-0.2,1.6-0.3c0.4-0.1,0.8-0.3,1-0.6c0.3-0.3,0.4-0.7,0.4-1.2
		c0-0.8-0.4-1.5-1.1-1.8c-0.3-0.2-0.7-0.3-1.1-0.3c-1.2-0.2-2.5-0.1-3.7,0.4c-0.7,0.4-1.1,1.2-1.1,2h-3.6c0-1,0.2-1.9,0.7-2.7
		c0.4-0.7,1-1.2,1.7-1.6c0.7-0.5,1.5-0.8,2.4-0.9c0.9-0.2,1.8-0.3,2.7-0.3c0.8,0,1.6,0.1,2.3,0.3c0.8,0.1,1.5,0.4,2.2,0.8
		c0.6,0.4,1.1,0.9,1.5,1.5c0.4,0.7,0.6,1.4,0.6,2.2L304.2,80.6z"/>
	<path class="st0" d="M308.4,67.7h2.7v-5h3.6v5h3.4v2.7h-3.4v8.9c0,0.3,0.1,0.7,0.1,1c0,0.2,0.1,0.5,0.2,0.7
		c0.1,0.2,0.3,0.3,0.5,0.4c0.3,0.1,0.7,0.1,1,0.1h0.8c0.2,0,0.5,0,0.7-0.1v2.8c-0.4,0.1-0.7,0.1-1.1,0.1c-0.4,0.1-0.8,0.1-1.2,0.1
		c-0.8,0-1.6-0.1-2.3-0.3c-0.6-0.1-1.1-0.4-1.4-0.8c-0.4-0.4-0.6-0.8-0.7-1.3c-0.1-0.6-0.2-1.2-0.2-1.8v-9.7h-2.7"/>
	<path class="st0" d="M222.1,67.7h2.7v-5h3.6v5h3.4v2.7h-3.4v8.9c0,0.3,0.1,0.7,0.1,1c0,0.2,0.1,0.5,0.2,0.7
		c0.1,0.2,0.3,0.3,0.5,0.4c0.3,0.1,0.7,0.1,1,0.1h0.8c0.2,0,0.5,0,0.7-0.1v2.8c-0.4,0.1-0.7,0.1-1.1,0.1c-0.4,0.1-0.8,0.1-1.2,0.1
		c-0.8,0-1.6-0.1-2.3-0.3c-0.6-0.1-1.1-0.4-1.4-0.8c-0.4-0.4-0.6-0.8-0.7-1.3c-0.1-0.6-0.2-1.2-0.2-1.8v-9.7h-2.7"/>
	<path class="st0" d="M322.7,67.7h3.6v16.5h-3.6V67.7 M322.7,61.4h3.6v3.5h-3.6V61.4z"/>
	<path class="st0" d="M339.8,81.8c0.7,0,1.5-0.2,2.1-0.5c0.6-0.3,1.1-0.8,1.5-1.3c0.4-0.6,0.7-1.2,0.8-1.9c0.4-1.4,0.4-2.8,0-4.2
		c-0.2-0.7-0.5-1.3-0.8-1.9c-0.4-0.5-0.9-1-1.5-1.3c-1.3-0.7-2.9-0.7-4.2,0c-0.6,0.3-1.1,0.8-1.5,1.3c-0.4,0.6-0.7,1.2-0.8,1.9
		c-0.4,1.4-0.4,2.8,0,4.2c0.2,0.7,0.5,1.3,0.8,1.9c0.4,0.5,0.9,1,1.5,1.3C338.3,81.6,339.1,81.8,339.8,81.8 M339.8,84.7
		c-1.2,0-2.4-0.2-3.5-0.7c-1-0.4-1.9-1-2.6-1.8c-0.8-0.7-1.4-1.7-1.7-2.7c-0.7-2.3-0.7-4.7,0-7c0.3-1,0.9-2,1.7-2.7
		c0.7-0.8,1.6-1.4,2.6-1.8c2.3-0.9,4.8-0.9,7,0c1,0.4,1.9,1,2.6,1.8c0.8,0.8,1.3,1.7,1.7,2.7c0.7,2.3,0.7,4.7,0,7
		c-0.4,1-0.9,1.9-1.7,2.7c-0.7,0.8-1.6,1.4-2.6,1.8C342.2,84.5,341,84.8,339.8,84.7L339.8,84.7z"/>
	<path class="st0" d="M353.1,67.7h3.5v2.4c0.6-0.9,1.3-1.6,2.2-2.1c0.9-0.5,1.9-0.8,2.9-0.8c1.6-0.1,3.1,0.4,4.3,1.4
		c1.1,0.9,1.6,2.3,1.6,4.2v11.4h-3.7V73.9c0.1-1-0.2-2-0.8-2.8c-0.6-0.7-1.5-1-2.4-0.9c-0.6,0-1.1,0.1-1.6,0.3
		c-0.5,0.2-0.9,0.5-1.3,0.9c-0.3,0.4-0.6,0.9-0.8,1.4c-0.2,0.5-0.3,1.1-0.3,1.7v9.8H353"/>
	<path class="st0" d="M383.6,76c-0.6,0.4-1.3,0.6-2,0.6c-0.8,0.1-1.6,0.2-2.4,0.4c-0.4,0-0.8,0.1-1.1,0.2c-0.3,0.1-0.7,0.3-1,0.5
		c-0.3,0.2-0.5,0.5-0.7,0.8c-0.1,0.4-0.2,0.8-0.2,1.2c0,0.4,0.1,0.8,0.4,1c0.2,0.3,0.5,0.5,0.8,0.7c0.4,0.2,0.7,0.3,1.1,0.3
		c0.4,0.1,0.7,0.1,1.1,0.1c0.4,0,0.9,0,1.3-0.1c0.5-0.1,0.9-0.3,1.3-0.6c0.4-0.3,0.8-0.6,1-1c0.3-0.4,0.5-0.9,0.4-1.4 M387.3,80.6
		c0,0.4,0,0.7,0.2,0.9c0.1,0.2,0.4,0.3,0.6,0.3h0.9v2.5c-0.2,0-0.3,0.1-0.5,0.1c-0.2,0.1-0.4,0.1-0.6,0.2c-0.2,0-0.4,0-0.6,0.1h-0.6
		c-0.6,0-1.3-0.2-1.8-0.5c-0.5-0.4-0.9-0.9-1-1.5c-0.7,0.7-1.6,1.2-2.6,1.5c-1,0.3-2.1,0.5-3.1,0.5c-0.7,0-1.4-0.1-2.1-0.3
		c-0.7-0.2-1.3-0.5-1.8-0.9c-0.5-0.4-1-0.9-1.3-1.5c-0.3-0.7-0.5-1.4-0.4-2.1c0-0.9,0.2-1.7,0.5-2.5c0.4-0.6,0.9-1.1,1.5-1.5
		c0.6-0.4,1.3-0.7,2-0.8c0.8-0.2,1.5-0.3,2.3-0.4c0.6-0.1,1.3-0.2,1.9-0.2c0.6-0.1,1.1-0.2,1.6-0.3c0.4-0.1,0.8-0.3,1.1-0.6
		c0.3-0.4,0.4-0.8,0.4-1.2c0-0.4-0.1-0.8-0.4-1.1c-0.2-0.3-0.5-0.6-0.8-0.7c-0.3-0.2-0.7-0.3-1.1-0.3c-1.2-0.2-2.5-0.1-3.7,0.5
		c-0.7,0.5-1.1,1.2-1.1,2h-3.6c0-1,0.2-1.9,0.7-2.7c0.5-0.6,1-1.2,1.7-1.6c0.7-0.5,1.5-0.8,2.4-0.9c0.9-0.2,1.8-0.3,2.7-0.3
		c0.8,0,1.6,0.1,2.4,0.3c0.8,0.1,1.5,0.4,2.1,0.8c0.6,0.4,1.1,0.9,1.5,1.5c0.4,0.7,0.6,1.4,0.6,2.2L387.3,80.6z"/>
	<rect x="393.1" y="61.4" class="st0" width="3.7" height="22.8"/>
	<polyline class="st0" points="191.2,92 209.8,92 209.8,95.5 202.5,95.5 202.5,114.9 198.5,114.9 198.5,95.5 191.2,95.5 	"/>
	<path class="st0" d="M210.8,98.3h3.5v3.2h0.1c0.1-0.5,0.3-0.9,0.6-1.3c0.3-0.4,0.7-0.9,1.1-1.2c0.5-0.3,1-0.6,1.5-0.8
		c0.5-0.2,1.1-0.4,1.6-0.4c0.4,0,0.7,0.1,0.9,0.1h0.5v3.5c-0.3,0-0.6,0-0.8-0.1H219c-0.6,0-1.2,0.1-1.7,0.4c-0.5,0.2-1,0.6-1.4,1
		c-0.5,0.5-0.8,1.1-1,1.8c-0.2,0.8-0.3,1.6-0.3,2.4v8h-3.7"/>
	<path class="st0" d="M234.3,106.6c-0.6,0.4-1.4,0.6-2.1,0.7c-0.8,0.1-1.6,0.2-2.4,0.3c-0.4,0.1-0.7,0.2-1.1,0.3
		c-0.4,0.1-0.7,0.3-1,0.5c-0.3,0.2-0.5,0.5-0.6,0.8c-0.2,0.3-0.3,0.7-0.3,1.1c0,0.4,0.1,0.8,0.4,1.1c0.2,0.3,0.5,0.5,0.8,0.6
		c0.4,0.2,0.7,0.3,1.1,0.4c0.4,0,0.8,0.1,1.1,0.1c0.4,0,0.9-0.1,1.3-0.2c0.4-0.1,0.9-0.3,1.2-0.5c0.4-0.3,0.8-0.6,1.1-1
		c0.3-0.5,0.4-1,0.4-1.5 M237.9,111.2c0,0.3,0.1,0.7,0.2,1c0.1,0.2,0.3,0.3,0.7,0.3h0.4c0.2,0,0.3-0.1,0.5-0.1v2.5
		c-0.2,0.1-0.3,0.1-0.5,0.2s-0.4,0.1-0.6,0.1c-0.2,0-0.5,0.1-0.7,0.1h-0.5c-0.7,0-1.3-0.1-1.9-0.4c-0.5-0.4-0.9-1-0.9-1.6
		c-0.8,0.7-1.7,1.2-2.7,1.5c-1,0.3-2,0.5-3,0.5c-0.7,0-1.5-0.1-2.2-0.3c-0.7-0.2-1.3-0.5-1.8-0.9c-0.5-0.4-0.9-0.9-1.2-1.5
		c-0.3-0.7-0.5-1.4-0.5-2.1c0-0.9,0.2-1.7,0.6-2.5c0.3-0.6,0.8-1.1,1.4-1.5c0.7-0.4,1.4-0.6,2.1-0.8c0.7-0.1,1.5-0.2,2.3-0.3
		c0.6-0.1,1.2-0.3,1.8-0.3c0.6,0,1.1-0.1,1.6-0.3c0.4-0.1,0.8-0.3,1.1-0.6c0.3-0.2,0.4-0.6,0.4-1.2c0-0.4-0.1-0.8-0.3-1.1
		c-0.3-0.3-0.6-0.5-0.9-0.7c-0.4-0.2-0.7-0.3-1.1-0.3c-0.4-0.1-0.7-0.1-1.1-0.1c-0.9-0.1-1.8,0.2-2.5,0.7c-0.7,0.4-1.2,1.1-1.2,1.9
		h-3.6c0-0.9,0.3-1.8,0.8-2.6c0.4-0.7,1-1.3,1.7-1.7c0.7-0.4,1.5-0.7,2.3-0.9c0.9-0.2,1.8-0.3,2.7-0.3c0.8,0,1.6,0.1,2.4,0.3
		c0.7,0.2,1.5,0.4,2.1,0.8c0.6,0.3,1.2,0.9,1.5,1.5c0.4,0.7,0.6,1.4,0.6,2.2L237.9,111.2z"/>
	<path class="st0" d="M246.6,106.8c0,0.7,0.1,1.4,0.3,2.1c0.2,0.6,0.5,1.2,0.8,1.8c0.4,0.5,0.9,1,1.5,1.3c0.6,0.3,1.3,0.5,2,0.5
		c0.7,0,1.5-0.2,2.1-0.6c0.6-0.3,1.1-0.7,1.4-1.3c0.4-0.6,0.7-1.2,0.8-1.9c0.2-0.7,0.3-1.4,0.3-2.1c0.1-1.5-0.3-3.1-1.2-4.3
		c-0.8-1-2.1-1.6-3.4-1.5c-1.4-0.1-2.8,0.7-3.5,1.9c-0.4,0.6-0.7,1.2-0.8,1.9C246.7,105.3,246.6,106,246.6,106.8 M259.4,114.9H256
		v-2.3h-0.1c-0.4,0.9-1.2,1.7-2.1,2.1c-1,0.4-2,0.6-3,0.6c-1.2,0-2.4-0.2-3.4-0.7c-1-0.4-1.8-1-2.4-1.8c-0.6-0.8-1.1-1.8-1.4-2.8
		c-0.3-1.1-0.5-2.3-0.5-3.5c0-1.3,0.2-2.6,0.6-3.8c0.3-1,0.9-1.9,1.6-2.7c0.7-0.7,1.4-1.2,2.3-1.6c0.8-0.3,1.7-0.5,2.6-0.5
		c0.5,0,1.1,0.1,1.6,0.2c0.5,0.1,1,0.2,1.5,0.4c0.5,0.2,1,0.5,1.4,0.9c0.4,0.3,0.7,0.7,1,1.1h0.1V92h3.6V114.9z"/>
	<path class="st0" d="M276.7,105.2c-0.1-0.6-0.2-1.1-0.4-1.7c-0.2-0.5-0.5-1-0.8-1.4c-0.4-0.4-0.8-0.7-1.3-0.9
		c-0.5-0.3-1.1-0.4-1.7-0.4c-0.6,0-1.1,0.1-1.7,0.3c-0.5,0.3-1,0.6-1.4,1c-0.3,0.4-0.7,0.9-0.9,1.4c-0.2,0.5-0.3,1.1-0.3,1.7
		 M268.1,107.6c0,0.6,0.1,1.2,0.2,1.8c0.2,0.6,0.5,1.1,0.8,1.6c0.4,0.4,0.9,0.8,1.4,1.1c0.6,0.2,1.3,0.4,2,0.4
		c0.9,0,1.8-0.2,2.6-0.7c0.7-0.6,1.1-1.3,1.4-2.1h3.5c-0.2,0.9-0.6,1.7-1,2.4c-0.5,0.7-1,1.3-1.7,1.8c-0.7,0.4-1.4,0.8-2.2,1.1
		c-0.9,0.2-1.7,0.3-2.6,0.3c-1.2,0-2.3-0.2-3.4-0.6c-1-0.4-1.9-1-2.6-1.8c-0.7-0.8-1.2-1.7-1.5-2.7c-0.4-1.1-0.6-2.3-0.6-3.5
		c0-2.3,0.8-4.5,2.2-6.2c0.7-0.8,1.6-1.4,2.5-1.9c1.1-0.5,2.2-0.7,3.4-0.7c1.2,0,2.5,0.3,3.5,0.9c1,0.5,1.9,1.2,2.6,2.1
		c0.6,1,1.1,2,1.5,3.1c0.3,1.2,0.3,2.4,0.2,3.6L268.1,107.6z"/>
	<path class="st0" d="M284.9,98.3h3.5v2.3h0.1c0.2-0.4,0.5-0.8,0.8-1.1c0.3-0.4,0.7-0.7,1.1-0.9c0.4-0.2,0.9-0.4,1.4-0.5
		c0.5-0.2,1.1-0.3,1.7-0.3c1,0,1.9,0.3,2.8,0.7c0.9,0.4,1.5,1.2,1.8,2.1c0.6-0.8,1.4-1.5,2.2-2c0.9-0.6,2-0.9,3-0.8
		c1.5-0.1,2.9,0.4,4.1,1.3c1,0.9,1.4,2.3,1.4,4.3v11.5h-3.6v-9.7c0-0.6,0-1.2-0.1-1.8c0-0.5-0.1-1-0.3-1.4c-0.2-0.4-0.5-0.7-0.9-0.9
		c-0.5-0.2-1.1-0.3-1.7-0.3c-1-0.1-2.1,0.4-2.7,1.2c-0.6,1-0.9,2.1-0.8,3.2v9.8h-3.6v-10.7c0.1-0.9-0.2-1.9-0.7-2.6
		c-0.5-0.7-1.3-1-2.2-0.9c-0.5,0-1,0.1-1.4,0.3c-0.4,0.2-0.8,0.5-1.1,0.8c-0.4,0.4-0.7,0.9-0.8,1.4c-0.3,0.6-0.4,1.2-0.4,1.8v9.9
		h-3.6"/>
	<path class="st0" d="M325,106.6c-0.6,0.4-1.3,0.6-2,0.7c-0.8,0-1.7,0.1-2.5,0.3c-0.4,0.1-0.7,0.2-1.1,0.3c-0.3,0.1-0.7,0.3-0.9,0.5
		c-0.3,0.2-0.6,0.5-0.7,0.8c-0.2,0.3-0.2,0.7-0.2,1.1c0,0.4,0.1,0.8,0.3,1.1c0.2,0.3,0.6,0.5,0.9,0.6c0.3,0.2,0.6,0.3,1,0.4
		c0.4,0,0.8,0.1,1.1,0.1c0.4,0,0.9-0.1,1.3-0.2c0.5-0.1,0.9-0.3,1.3-0.5c0.4-0.3,0.8-0.6,1.1-1c0.3-0.5,0.4-1,0.4-1.5 M328.6,111.2
		c0,0.3,0.1,0.7,0.2,1c0.1,0.2,0.3,0.3,0.7,0.3h0.4c0.2,0,0.3-0.1,0.5-0.1v2.5c-0.1,0.1-0.3,0.1-0.5,0.2s-0.4,0.1-0.6,0.1
		s-0.5,0.1-0.7,0.1h-0.5c-0.7,0-1.3-0.1-1.9-0.4c-0.5-0.4-0.9-1-0.9-1.6c-0.8,0.7-1.7,1.3-2.7,1.5c-1,0.4-2,0.5-3,0.5
		c-0.7,0-1.5-0.1-2.2-0.3c-0.6-0.2-1.3-0.5-1.8-0.9c-0.5-0.4-0.9-0.9-1.2-1.5c-0.3-0.7-0.5-1.4-0.5-2.1c0-0.9,0.2-1.7,0.6-2.5
		c0.4-0.6,0.8-1.1,1.4-1.5c0.7-0.3,1.4-0.6,2.1-0.8c0.7-0.1,1.5-0.2,2.3-0.3c0.6-0.1,1.3-0.3,1.9-0.3c0.5,0,1-0.1,1.5-0.3
		c0.4,0,0.8-0.3,1.1-0.6c0.3-0.2,0.4-0.6,0.4-1.2c0-0.4-0.1-0.8-0.3-1.1c-0.2-0.3-0.5-0.6-0.9-0.7c-0.3-0.2-0.7-0.3-1-0.3
		c-0.4-0.1-0.8-0.1-1.2-0.1c-0.9-0.1-1.8,0.2-2.5,0.7c-0.7,0.4-1.1,1.1-1.1,1.9h-3.7c0-0.9,0.3-1.8,0.8-2.6c0.4-0.7,1-1.3,1.7-1.7
		c0.7-0.4,1.5-0.7,2.3-0.9c0.9-0.2,1.8-0.3,2.7-0.3c0.8,0,1.6,0.1,2.4,0.3c0.7,0.2,1.5,0.4,2.1,0.8c0.7,0.4,1.2,0.9,1.6,1.5
		c0.3,0.7,0.5,1.4,0.5,2.2V111.2z"/>
	<path class="st0" d="M334.4,98.3h3.4v3.2h0.1c0.1-0.5,0.3-0.9,0.6-1.3c0.3-0.4,0.7-0.9,1.1-1.2c0.5-0.3,1-0.6,1.5-0.8
		c0.5-0.2,1.1-0.4,1.6-0.4c0.4,0,0.7,0.1,0.9,0.1h0.5v3.5c-0.3,0-0.6,0-0.8-0.1h-0.8c-0.6,0-1.2,0.1-1.7,0.4c-0.6,0.2-1.1,0.6-1.5,1
		c-0.4,0.5-0.7,1.2-0.9,1.8c-0.2,0.8-0.4,1.6-0.4,2.4v8h-3.6"/>
	<polyline class="st0" points="347.7,92 351.3,92 351.3,105.1 358,98.3 362.4,98.3 356.1,104.4 363.1,114.9 358.6,114.9 
		353.6,106.9 351.3,109 351.3,114.9 347.7,114.9 	"/>
	<path class="st0" d="M198.2,136.5h6.9l-3.4-9.9h-0.1 M199.6,122.6h4.2l8.8,22.9h-4.3l-2.1-6H197l-2.1,6h-4.1L199.6,122.6z"/>
	<path class="st0" d="M219,140.2c0,0.9,0.4,1.8,1.2,2.3c0.8,0.4,1.6,0.6,2.5,0.6c0.4,0,0.8,0,1.2-0.1c0.4,0,0.8-0.1,1.2-0.3
		c0.4-0.1,0.7-0.3,0.9-0.6c0.3-0.3,0.4-0.8,0.4-1.2c-0.1-0.4-0.2-0.8-0.5-1.1c-0.4-0.3-0.8-0.6-1.3-0.7c-0.5-0.2-1.1-0.4-1.7-0.5
		c-0.6-0.1-1.3-0.3-1.9-0.4c-0.6-0.1-1.4-0.4-2-0.6c-0.6-0.2-1.1-0.5-1.7-0.8c-0.5-0.4-0.9-0.9-1.2-1.4c-0.3-0.7-0.4-1.4-0.4-2.1
		c0-0.8,0.2-1.6,0.6-2.2c0.4-0.6,1-1.1,1.7-1.5c0.7-0.4,1.4-0.7,2.2-0.8c0.8-0.1,1.6-0.2,2.4-0.2c0.8,0,1.6,0.1,2.4,0.3
		c0.8,0.1,1.5,0.4,2.1,0.8c0.6,0.4,1.2,1,1.6,1.6c0.4,0.7,0.7,1.5,0.8,2.3h-3.8c-0.1-0.7-0.6-1.3-1.2-1.7c-0.7-0.3-1.5-0.4-2.2-0.4
		h-0.9c-0.3,0.1-0.7,0.2-1,0.3c-0.3,0.1-0.6,0.2-0.8,0.5c-0.2,0.2-0.3,0.5-0.3,0.8c0,0.4,0.2,0.8,0.5,1.1c0.4,0.3,0.8,0.6,1.2,0.7
		c0.5,0.2,1.1,0.3,1.7,0.5c0.7,0.1,1.4,0.2,2,0.4c0.6,0.1,1.3,0.3,1.9,0.5c0.6,0.2,1.2,0.5,1.7,0.9c0.5,0.3,0.9,0.8,1.2,1.4
		c0.3,0.6,0.5,1.3,0.5,2c0,0.9-0.2,1.8-0.7,2.5c-0.4,0.7-1,1.2-1.7,1.6c-0.7,0.5-1.6,0.8-2.4,1c-0.9,0.2-1.7,0.3-2.6,0.3
		c-1,0-2-0.2-2.9-0.4c-0.8-0.2-1.6-0.6-2.3-1.1c-0.6-0.4-1.1-1-1.5-1.7c-0.4-0.8-0.6-1.7-0.6-2.6"/>
	<path class="st0" d="M237.5,140.2c0,0.9,0.5,1.8,1.2,2.3c0.8,0.4,1.6,0.6,2.5,0.6c0.4,0,0.8,0,1.2-0.1c0.4,0,0.8-0.1,1.2-0.3
		c0.4-0.1,0.7-0.3,0.9-0.6c0.6-0.7,0.5-1.7-0.1-2.3c-0.4-0.3-0.8-0.6-1.3-0.7c-0.5-0.2-1.1-0.4-1.7-0.5c-0.6-0.1-1.3-0.3-1.9-0.4
		c-0.6-0.1-1.4-0.4-2-0.6c-0.6-0.2-1.1-0.5-1.7-0.8c-0.5-0.4-0.9-0.9-1.2-1.4c-0.3-0.7-0.4-1.4-0.4-2.1c0-0.8,0.2-1.6,0.6-2.2
		c0.4-0.6,1-1.1,1.7-1.5c0.7-0.4,1.4-0.7,2.2-0.8c0.8-0.1,1.6-0.2,2.4-0.2c0.8,0,1.6,0.1,2.4,0.3c0.8,0.1,1.5,0.4,2.1,0.8
		c0.6,0.4,1.2,1,1.6,1.6c0.4,0.7,0.7,1.5,0.8,2.3h-3.8c-0.1-0.7-0.6-1.3-1.2-1.7c-0.7-0.3-1.5-0.4-2.2-0.4H240
		c-0.3,0.1-0.7,0.2-1,0.3c-0.3,0.1-0.6,0.2-0.8,0.5c-0.2,0.2-0.3,0.5-0.3,0.8c0,0.4,0.2,0.8,0.5,1.1c0.4,0.3,0.8,0.6,1.2,0.7
		c0.5,0.2,1.1,0.3,1.7,0.5c0.7,0.1,1.4,0.2,2,0.4c0.6,0.1,1.3,0.3,1.9,0.5c0.6,0.2,1.2,0.5,1.7,0.9c0.5,0.3,0.9,0.8,1.2,1.4
		c0.4,0.6,0.6,1.3,0.5,2c0,0.9-0.2,1.8-0.7,2.5c-0.4,0.7-1,1.2-1.7,1.6c-0.7,0.5-1.6,0.8-2.4,1c-0.9,0.2-1.7,0.3-2.6,0.3
		c-1,0-2-0.2-2.9-0.4c-0.8-0.2-1.6-0.6-2.2-1.1c-0.7-0.4-1.2-1-1.6-1.7c-0.4-0.8-0.6-1.7-0.6-2.6"/>
	<path class="st0" d="M260.9,143.1c0.7,0,1.5-0.2,2.1-0.5c0.6-0.4,1.1-0.8,1.5-1.4c0.4-0.6,0.6-1.2,0.8-1.8c0.2-0.7,0.3-1.4,0.3-2.1
		c0-0.7-0.1-1.5-0.3-2.2c-0.2-0.6-0.5-1.2-0.8-1.8c-0.4-0.6-0.9-1-1.5-1.3c-1.3-0.8-2.9-0.8-4.2,0c-0.6,0.3-1.1,0.7-1.5,1.3
		c-0.4,0.5-0.7,1.2-0.8,1.8c-0.2,0.7-0.3,1.5-0.3,2.2c0,0.7,0.1,1.4,0.3,2.1c0.2,0.7,0.4,1.3,0.8,1.8c0.4,0.6,0.9,1,1.5,1.4
		C259.4,142.9,260.1,143.1,260.9,143.1 M260.9,146c-1.2,0-2.4-0.2-3.5-0.7c-1-0.4-2-1-2.7-1.8c-0.7-0.8-1.2-1.7-1.6-2.7
		c-0.4-1.1-0.5-2.3-0.5-3.5c-0.1-1.2,0.1-2.4,0.5-3.5c0.4-1,0.9-2,1.6-2.8c0.8-0.7,1.7-1.4,2.7-1.8c2.3-0.8,4.8-0.8,7,0
		c1,0.5,1.8,1.1,2.6,1.8c0.7,0.8,1.3,1.8,1.7,2.8c0.3,1.1,0.5,2.3,0.5,3.5c0,1.2-0.2,2.4-0.5,3.5c-0.4,1-1,1.9-1.7,2.7
		c-0.7,0.8-1.6,1.4-2.6,1.8C263.3,145.8,262.1,146,260.9,146z"/>
	<path class="st0" d="M285.3,134.5c-0.1-0.9-0.5-1.7-1.2-2.3c-0.7-0.5-1.6-0.8-2.5-0.8c-0.5,0-1,0.1-1.5,0.3
		c-0.6,0.1-1.1,0.4-1.5,0.9c-0.5,0.5-0.9,1.1-1.1,1.8c-0.3,1-0.5,2-0.5,3c0,0.7,0.1,1.4,0.3,2.1c0.1,0.6,0.4,1.3,0.7,1.8
		c0.4,0.5,0.8,1,1.4,1.3c0.6,0.3,1.3,0.5,2,0.5c1,0.1,1.9-0.3,2.6-1c0.8-0.7,1.2-1.8,1.3-2.8h3.7c-0.2,1.9-1.1,3.7-2.5,5
		c-1.5,1.2-3.3,1.8-5.1,1.7c-1.2,0-2.3-0.2-3.4-0.7c-1-0.4-1.8-1-2.5-1.8c-0.7-0.8-1.3-1.7-1.6-2.7c-0.3-1.1-0.5-2.3-0.5-3.4
		c0-1.2,0.2-2.3,0.5-3.4c0.4-1,0.9-2,1.5-2.9c0.7-0.8,1.6-1.4,2.6-1.8c1.1-0.5,2.3-0.7,3.5-0.7c0.9,0,1.9,0.1,2.8,0.3
		c0.8,0.3,1.6,0.7,2.3,1.1c0.6,0.5,1.2,1.2,1.6,1.9c0.5,0.8,0.7,1.7,0.8,2.6"/>
	<path class="st0" d="M294,128.9h3.6v16.6H294V128.9 M294,122.6h3.6v3.5H294V122.6z"/>
	<path class="st0" d="M313.7,137.3c-0.6,0.3-1.3,0.5-2,0.6l-2.5,0.3c-0.4,0.1-0.7,0.2-1.1,0.3c-0.3,0.1-0.6,0.3-0.9,0.5
		c-0.3,0.2-0.5,0.5-0.7,0.8c-0.2,0.4-0.3,0.8-0.2,1.2c0,0.3,0.1,0.7,0.3,1c0.2,0.3,0.5,0.6,0.9,0.7c0.3,0.1,0.6,0.2,1,0.3
		c0.4,0.1,0.7,0.1,1.1,0.1c0.4,0,0.9-0.1,1.3-0.2c0.5-0.1,0.9-0.3,1.3-0.5c0.4-0.3,0.8-0.6,1.1-1c0.3-0.4,0.4-0.9,0.4-1.4
		 M317.3,141.8c0,0.3,0.1,0.7,0.2,1c0.2,0.2,0.4,0.3,0.7,0.3h0.4c0.2,0,0.3,0,0.5-0.1v2.5c-0.1,0.1-0.3,0.1-0.5,0.2
		s-0.4,0.1-0.6,0.1c-0.2,0.1-0.5,0.1-0.7,0.1c-0.2,0-0.3,0.1-0.5,0.1c-0.7,0-1.3-0.2-1.9-0.5c-0.5-0.4-0.9-1-0.9-1.6
		c-0.7,0.8-1.7,1.4-2.7,1.6c-1,0.3-2,0.5-3,0.5c-0.7,0-1.5-0.1-2.2-0.3c-0.6-0.2-1.3-0.5-1.8-0.9c-0.5-0.4-0.9-0.9-1.2-1.5
		c-0.3-0.7-0.5-1.4-0.5-2.2c0-0.8,0.2-1.7,0.6-2.4c0.3-0.7,0.8-1.2,1.5-1.5c0.6-0.4,1.3-0.7,2-0.8c0.8-0.2,1.5-0.3,2.3-0.4l1.9-0.3
		c0.5,0,1-0.1,1.5-0.2c0.4-0.1,0.8-0.3,1.1-0.6c0.3-0.3,0.4-0.8,0.4-1.2c0-0.4-0.1-0.8-0.3-1.2c-0.2-0.3-0.5-0.5-0.8-0.7
		c-0.4-0.1-0.7-0.2-1.1-0.3s-0.8-0.1-1.2-0.1c-0.9,0-1.8,0.2-2.5,0.7c-0.7,0.4-1.1,1.2-1.1,2h-3.7c0-1,0.3-1.9,0.8-2.7
		c0.4-0.7,1-1.2,1.7-1.7c0.7-0.4,1.5-0.7,2.3-0.9c0.9-0.1,1.8-0.2,2.7-0.2c0.8,0,1.6,0.1,2.4,0.2c0.8,0.2,1.5,0.5,2.1,0.9
		c0.7,0.3,1.2,0.8,1.6,1.4c0.3,0.7,0.5,1.5,0.5,2.3L317.3,141.8z"/>
	<path class="st0" d="M321.5,128.9h2.8V124h3.6v4.9h3.4v2.7h-3.4v8.9c0,0.3,0,0.7,0.1,1c0,0.2,0.1,0.5,0.2,0.7
		c0.1,0.2,0.3,0.4,0.5,0.5c0.3,0.1,0.7,0.1,1,0.1h0.7c0.3,0,0.6-0.1,0.8-0.1v2.8c-0.4,0-0.8,0.1-1.2,0.1c-0.4,0.1-0.8,0.1-1.2,0.1
		c-0.8,0-1.6-0.1-2.3-0.3c-0.5-0.2-1-0.4-1.3-0.8c-0.4-0.3-0.6-0.8-0.7-1.3c-0.1-0.6-0.2-1.2-0.2-1.8v-9.8h-2.8"/>
	<path class="st0" d="M335.8,128.9h3.6v16.6h-3.6V128.9 M335.8,122.6h3.6v3.5h-3.6V122.6z"/>
	<path class="st0" d="M353,143.1c0.7,0,1.5-0.2,2.1-0.5c0.6-0.3,1.1-0.8,1.4-1.4c0.4-0.5,0.7-1.2,0.9-1.8c0.2-0.7,0.3-1.4,0.3-2.1
		c0-0.7-0.1-1.5-0.3-2.2c-0.2-0.7-0.5-1.3-0.9-1.8c-0.3-0.6-0.8-1-1.4-1.3c-1.3-0.8-2.9-0.8-4.2,0c-1.2,0.6-2,1.8-2.3,3.1
		c-0.2,0.7-0.3,1.5-0.3,2.2c0,0.7,0.1,1.4,0.3,2.1c0.1,0.7,0.4,1.3,0.8,1.8c0.4,0.6,0.9,1,1.5,1.4
		C351.6,142.9,352.3,143.1,353,143.1 M353,146c-1.2,0-2.4-0.2-3.5-0.7c-1-0.4-2-1-2.7-1.8c-0.7-0.8-1.2-1.7-1.6-2.7
		c-0.4-1.1-0.6-2.3-0.6-3.5c0-1.2,0.2-2.4,0.6-3.5c0.4-1,0.9-2,1.6-2.8c0.8-0.8,1.7-1.4,2.7-1.8c2.3-0.8,4.8-0.8,7,0
		c1,0.5,1.8,1.1,2.6,1.8c0.7,0.8,1.3,1.8,1.6,2.8c0.4,1.1,0.6,2.3,0.6,3.5c0,1.2-0.2,2.4-0.6,3.5c-0.3,1-0.9,1.9-1.6,2.7
		c-0.7,0.8-1.6,1.4-2.6,1.8C355.4,145.8,354.2,146,353,146L353,146z"/>
	<path class="st0" d="M366.2,128.9h3.4v2.4l0.1,0.1c0.5-0.9,1.3-1.6,2.2-2.1c0.9-0.6,1.9-0.9,2.9-0.8c1.6-0.1,3.1,0.4,4.3,1.4
		c1.1,1.1,1.7,2.6,1.6,4.2v11.4h-3.7v-10.5c0-1-0.2-2-0.8-2.8c-0.6-0.7-1.5-1-2.4-0.9c-0.6,0-1.1,0.2-1.7,0.4
		c-0.5,0.2-0.9,0.5-1.2,0.9c-0.3,0.4-0.6,0.9-0.8,1.4c-0.2,0.5-0.3,1.1-0.3,1.7v9.8h-3.6"/>
	<polyline class="st1" points="107.6,61.4 147.9,61.4 145.9,71.8 132.5,71.8 125.6,108.3 113.7,108.3 120.8,71.8 105.6,71.8 	"/>
	<path class="st1" d="M161.7,77.5L154,92.1h10.5 M133.3,108.3L158,61.4h12.9l8.7,46.8h-12.1l-1.5-7.8h-16.3l-4.1,7.9H133.3z"/>
	<polyline class="st1" points="55.5,61.4 55.6,61.4 46.7,108.3 34.8,108.3 43.8,61.4 55.6,61.4 	"/>
	<polyline class="st1" points="82.7,108.3 70.2,80.1 64.8,108.3 52.9,108.3 62,61.4 73.9,61.4 86.5,88.4 91.8,61.4 103.5,61.4 
		94.6,108.3 	"/>
	<path class="st1" d="M129.1,41H91.2l1.5-3.4H55.9l2.5-2.5h104c2.7,2.6,5.1,5.4,7.1,8.4h-39.4"/>
	<path class="st1" d="M124.5,31.9h34.4c-3.6-3.1-7.4-5.8-11.5-8.3H73.4c0,0-1,0.6-2.2,1.4l-1.8,1.1c0,0,29.9,0.1,29.9,0l-2,3.4h26"
		/>
	<path class="st1" d="M134.2,54.8h42.3c-1.3-2.8-2.9-5.6-4.6-8.2H49l-1.5,2.4h40.4l-1.1,3.2h46.8C133.5,52.3,133.9,54,134.2,54.8"/>
	<path class="st1" d="M115.2,18.2c-7.4,0-30.8,0.1-30.5,0c8.2-3,16.9-4.6,25.7-4.5c11.1,0,22,2.5,32,7.1c-0.9,0.1-19.1,0.1-25.1,0.1
		"/>
	<path class="st1" d="M129,128.7H91.1l1.5,3.2H55.8l2.4,2.5h104c2.6-2.5,5-5.3,7-8.3H130"/>
	<path class="st1" d="M124.5,137.7h34.4c-3.6,3.1-7.4,5.8-11.5,8.3L73.2,146c0,0-1-0.7-2.2-1.4c-0.6-0.4-1.2-0.8-1.9-1.1l30-0.1
		l-2.1-3.2h26"/>
	<path class="st1" d="M134,114.8c10.1,0,32.8-0.1,42.3-0.1c-1.3,2.9-2.9,5.6-4.6,8.3H48.9l-1.5-2.5h40.4l-1.1-3.2h46.7
		C133.3,117.4,133.8,115.6,134,114.8"/>
	<path class="st1" d="M115.1,151.4c-7.4,0-30.8-0.1-30.6,0c8.2,3.1,17,4.7,25.8,4.6c11-0.1,21.9-2.5,31.9-7.3h-25"/>
	<path class="st1" d="M157.6,149.4h1.2c1,0,1.9-0.1,1.9-1.2s-0.8-1.1-1.6-1.1h-1.5 M156.5,146.1h2.8c1.7,0,2.5,0.6,2.5,2
		c0.1,1-0.6,1.9-1.6,2c-0.1,0-0.2,0-0.3,0l2.1,3.2h-1.2l-2-3.1h-1.2v3.1h-1.1V146.1z M158.9,155.1c2.9,0.1,5.4-2.2,5.5-5.1
		c0.1-2.9-2.2-5.4-5.1-5.5c-2.9-0.1-5.4,2.2-5.5,5.1c0,0.1,0,0.1,0,0.2c-0.1,2.8,2.1,5.2,4.9,5.3
		C158.8,155.1,158.9,155.1,158.9,155.1z M158.9,143.5c3.4,0,6.2,2.8,6.2,6.2c0,3.4-2.8,6.2-6.2,6.2s-6.2-2.8-6.2-6.2
		C152.7,146.3,155.5,143.5,158.9,143.5z"/>
</g>
</svg>
