<svg id="Layer_1" data-name="Layer 1" xmlns="http://www.w3.org/2000/svg" viewBox="0 0 956.66 689.7"><defs><style>.cls-1{fill:#02945a;}.cls-2{fill:#15334d;}</style></defs><title>logochambers-cascoycasco</title><g id="Of2YP2"><path class="cls-1" d="M956.66,208.21c-.14,46.34-38.69,84.9-85.07,84.8-12.35,0-10.72,1.59-11.31-11.07-1.52-32.67,18.47-64.82,48.12-78.71a86.87,86.87,0,0,1,43.77-8.44c2.49.18,3.79.82,3.83,3.55C956.05,201.63,956.43,204.92,956.66,208.21Z"/><path class="cls-1" d="M910.06,314.66a87.59,87.59,0,0,1,39.08,8.4c2.89,1.35,3.24,3,2.4,5.74-12,39.4-47.49,64-88.71,61.25a81.21,81.21,0,0,1-30.6-8.43c-2.56-1.27-2.94-2.63-2.17-5.17,8.72-28.64,27.33-47.77,55.47-57.65A73.92,73.92,0,0,1,910.06,314.66Z"/><path class="cls-1" d="M832,479.92c-24.73-.32-45.59-9.43-62.55-27.51-2-2.09-2.87-3.63-.63-6.39,18.28-22.5,41.86-33.7,70.78-32.63,23.47.88,43.13,10.62,59.09,27.87,1.82,2,2,3.41.3,5.59-14.07,17.72-32.1,28.59-54.55,32.09A79.55,79.55,0,0,1,832,479.92Z"/><path class="cls-1" d="M762.77,548.84c-35.28,0-67.29-22.6-78.86-55.43-1-3-.42-4.26,2.11-5.76C726.26,463.88,778.49,478,801.74,519a110.24,110.24,0,0,1,6,13c.94,2.33.51,3.84-1.93,5.31C793.89,544.42,777.94,548.84,762.77,548.84Z"/><path class="cls-1" d="M192,548.67a85.4,85.4,0,0,1-42.07-11.08c-2.85-1.58-3.63-3.05-2.41-6.33a83.87,83.87,0,0,1,94.16-53.45,91.93,91.93,0,0,1,26.74,9.75c2.72,1.46,3.47,2.91,2.32,6A83.9,83.9,0,0,1,192,548.67Z"/><path class="cls-1" d="M85.28,390.28A84,84,0,0,1,4.41,328.55c-.63-2.29-.35-3.37,1.91-4.55,39.3-20.46,90.48-4.51,111.2,34.7A99.09,99.09,0,0,1,124.91,377c.71,2.37,0,3.45-2.09,4.54C112.39,386.91,98.24,390.28,85.28,390.28Z"/><path class="cls-1" d="M119.81,413.4c27.2.78,49.39,11.55,66.32,33,1.58,2,1.68,3.21-.06,5.24-30.24,35.17-86.83,37.81-120.27,5.54a109,109,0,0,1-9.35-10.32c-1.48-1.84-1.67-3.11,0-5,15.17-16.68,33.86-26.19,56.37-28.05C115.18,413.59,117.51,413.52,119.81,413.4Z"/><path class="cls-1" d="M11.56,195.94c37.4-.25,71.08,26,80.27,62.21a87.83,87.83,0,0,1,2.23,30.93c-.29,2.76-1.33,3.65-4.06,3.9-40.42,3.63-79.91-25.78-88-65.6A90.37,90.37,0,0,1,.47,199.64c.29-2.7,1.25-4,4.12-3.74C6.9,196.1,9.24,195.94,11.56,195.94Z"/><path class="cls-1" d="M104.79,159.15a76.4,76.4,0,0,1-9.2,37.74c-1.08,2-2.14,2.4-4.33,1.75-30.17-9-52.51-39-52.68-70.41a78.19,78.19,0,0,1,9.11-37.72c1.18-2.21,2.34-2.6,4.62-1.81,26.37,9.17,43.23,27.16,50.38,54.17A57.62,57.62,0,0,1,104.79,159.15Z"/><path class="cls-1" d="M916.24,121.61c.07,37.91-21.29,67-52.64,77-2.15.68-3.23.33-4.38-1.67-15.77-27.17-10.79-65.6,11.35-88.2a78.27,78.27,0,0,1,32-20.09c2.27-.74,3.37-.5,4.57,1.76C913.15,101.79,916.18,113.85,916.24,121.61Z"/><path class="cls-1" d="M100.71,65.46c.51-17.82,8.35-35,24.07-48.64,2-1.74,3.31-1.62,5.28,0,31.77,26,31.57,77.25-.39,103.08-1.9,1.54-3.07,1.49-5,0C110,107.89,100.68,88.1,100.71,65.46Z"/><path class="cls-1" d="M801.44,62.48c.23-14.57,8.07-31.41,23.19-45,2.18-1.95,3.63-2.22,6.12-.15,31.62,26.28,31.48,76.92-.32,102.77-1.95,1.59-3.12,1.43-5-.09C810.23,107.52,801.44,88.68,801.44,62.48Z"/><path class="cls-2" d="M419.51,427.11c0-14.6,1.62-26.39,8.14-37.21,9.85-16.32,32.31-16.45,43.73-7.65,6.51,5,10.11,11.7,12.09,19.15,4.77,18,4.28,36.05-2.18,53.66-4,10.85-18.14,19-30,18a35.33,35.33,0,0,1-15.62-4.75c-5.62-3.41-8.84-9-11.4-14.85C420.23,444.35,419.37,434.63,419.51,427.11Zm12.87-2.4c0,8,.47,15.91,2.95,23.55,1.92,5.91,5.15,10.94,11.34,13.1,11.25,3.9,21.15-1.86,24.21-14.48a94.07,94.07,0,0,0,0-44.32c-1.43-6.1-4.43-11.46-10.48-14.3-10.23-4.81-21.19.72-25,12.54C433,408.58,432.37,416.61,432.38,424.71Z"/><path class="cls-2" d="M529.75,471.53c-9.06,0-18.12-.19-27.17.09-3.66.11-4.57-1.08-4.35-4.54.4-6.07-.4-12.16,2-18.1,2.07-5.11,5.79-8.62,9.8-12,6.52-5.46,14.3-8.93,21.53-13.26,4.62-2.76,9.24-5.55,12.55-10,7.87-10.52,2.85-23.84-10-26.29-11.74-2.24-23.9,3.94-25.59,16.23a2.23,2.23,0,0,1-.05.36c-.54,1.79-6.4,2.78-10.66,1.88-2.66-.56-1.45-2.43-1.29-3.78,1.51-12.34,9.76-21.67,22.47-24.59,11-2.52,21.73-1.84,31.45,4.6,6.42,4.25,9.32,10.75,10.09,18.11,1,9.33-2.14,17.24-9,23.82-6.09,5.87-13.7,9.19-21,13.12-5.71,3.08-11,6.6-15.43,11.42-2.5,2.75-3.32,6.2-3.58,9.81-.21,2.82,1.83,2.34,3.47,2.34q20.58,0,41.14,0c4.81,0,4.81,0,4.81,4.68,0,6,0,6-6,6Z"/><path class="cls-2" d="M377.71,471.53c-9.3,0-18.6-.12-27.9.07-3,.06-4-.9-3.6-3.74a17.61,17.61,0,0,0,0-4c-1.35-14.06,5.59-23.57,16.92-30.55,6.24-3.85,12.72-7.33,19-11.11,4.1-2.47,7.92-5.3,10.68-9.36,6.44-9.49,2.28-21.64-8.71-24.74-12.73-3.6-25.73,2.4-27.61,15.84-.13.89-.33,1.9-1.34,1.93a85.85,85.85,0,0,1-9.89,0c-1.79-.16-1-1.91-.89-3,1.37-12.64,9.88-22.33,22.71-25.23,9.51-2.16,19-1.91,27.91,2.72,11.71,6.09,16.62,19.74,12.24,32.44-3.15,9.09-10.35,14-17.95,18.69-6.55,4-13.65,7.11-20,11.54-4.95,3.48-8.82,7.7-9.67,14.07-.37,2.81.26,3.92,3.39,3.89,13.95-.15,27.91,0,41.86-.14,3.09,0,4.33.6,4.21,4-.24,6.77,0,6.78-6.81,6.78Z"/><path class="cls-2" d="M445,142.16c4.66-6.36,10.18-8.17,16.67-7.29,3.37.46,6.41,1.55,8.3,4.72.94,1.59,1.88,1.65,3.32.2,5.48-5.49,12.15-6.18,19.24-4.07,3.32,1,5.12,3.57,5.93,6.9,1,4.23.57,8.53.62,12.8.07,6.37,0,12.73.05,19.1,0,3.13.54,5.95,4.4,6.51.62.09,1.31.36,1.29,1.07,0,1-.94,1-1.64,1q-9.92,0-19.83,0c-.58,0-1.29.12-1.56-.62s.28-1.16.86-1.34c3-.9,3.2-3.35,3.2-5.88,0-9.43,0-18.86,0-28.28,0-3.15.42-6.65-3.7-7.85-3-.86-7.4,1.7-9.14,5.24a11.78,11.78,0,0,0-1.19,5.32c.06,8.44.05,16.89,0,25.34,0,2.92.53,5.4,3.92,6.12.58.13,1.25.34,1.16,1.14s-.81.81-1.4.81q-9.92,0-19.83,0c-.45,0-1,0-1.18-.6s.26-1.18.86-1.35c2.75-.76,3-3.06,3.08-5.25.3-10.52.5-21-.11-31.55-.11-1.81-.15-4.19-2.23-4.61-2.41-.47-5.16-.91-7.34,1a10.1,10.1,0,0,0-3.72,7.69q-.06,13.77,0,27.55c0,2.18.42,4.16,2.85,5,.66.23,1.5.5,1.17,1.49-.25.75-1,.61-1.56.61q-9.92,0-19.84,0c-.59,0-1.29,0-1.44-.75s.43-1.1,1-1.2c4.05-.65,4.37-3.52,4.34-6.85-.08-9.67,0-19.34,0-29,0-3.29-.59-6.12-4.32-7.09-.61-.16-1.16-.41-1-1.23s.79-.81,1.4-.77a63.72,63.72,0,0,0,15.36-.78c1.51-.27,2,.33,2,1.72S445,139.68,445,142.16Z"/><path class="cls-2" d="M501.53,301.11c4.46-3.93,8.9-6.84,14.85-6.95A19.41,19.41,0,0,1,531,299.83c1.32,1.3,1.8,1.75,3.56.07,7.18-6.85,16.54-7.63,25.09-2.24,4.77,3,6.11,8.12,6.23,13.27.27,11.5,0,23,.13,34.51,0,2.05-.88,2.38-2.64,2.46-7,.28-7,.33-7-6.53,0-9.18.08-18.36,0-27.54-.12-9.45-7.38-14.06-16.16-10.44-4.54,1.87-6.36,5.36-6.33,10.14.06,10.16-.09,20.32.09,30.48,0,3-.67,4.36-3.81,3.87a9.15,9.15,0,0,0-2.56,0c-2.56.33-3.34-.69-3.3-3.27.14-10.53-.17-21.06.15-31.58.19-6.49-5.26-10.76-10.82-10.79-5.91,0-12,5.07-11.7,11,.49,10.38.05,20.8.21,31.21,0,2.72-.64,3.61-3.46,3.49-7.37-.29-6.07.84-6.11-6.3-.07-14.2.13-28.4-.12-42.6-.07-3.86,1.65-4,4.59-4s5.31-.08,4.52,3.93A11,11,0,0,0,501.53,301.11Z"/><path class="cls-2" d="M347.9,142c5.69-7.07,12.26-8.41,19.75-6.67,4,.94,6.25,3.59,7.21,7.48a35.26,35.26,0,0,1,.82,8.38c0,7.84.06,15.67,0,23.51,0,3.1.48,5.65,4.09,6.31.7.13,1.53.33,1.26,1.36-.21.77-.95.66-1.52.66H358.92c-.59,0-1.29,0-1.4-.81s.5-1.06,1.11-1.19c3.27-.72,3.63-3.18,3.62-5.92,0-9.79,0-19.59,0-29.39,0-2.61-.18-5.34-3.17-6.41s-5.77-.23-8.1,2a10.57,10.57,0,0,0-3.19,8c-.07,8.57,0,17.14,0,25.71,0,2.8.47,5.46,3.95,6.14a1,1,0,0,1,.88,1.31c-.17.63-.73.61-1.18.61q-10.65,0-21.3,0c-.45,0-1,0-1.15-.65s.33-1.16,1-1.25c4.23-.64,4.58-3.63,4.57-7.09-.07-17,0-34,0-51.06,0-3.52,0-7-4.59-8a1,1,0,0,1-.83-1.38c.22-.81.92-.64,1.5-.61a62.26,62.26,0,0,0,15-.73c2.6-.47,2.12,1.34,2.12,2.71,0,7.47,0,14.93,0,22.4C347.71,138.59,347.8,139.77,347.9,142Z"/><path class="cls-2" d="M521.1,142c3-3.14,5.25-5.33,8.33-6.35,8.27-2.73,16.07.47,19.37,8.56a36.59,36.59,0,0,1-.4,29.6c-4.11,9.17-15.72,13.59-24.76,9.22-4.82-2.33-8.86-1.73-13.19.41-.75.36-1.39,1.2-2.32.7-1.17-.63-.49-1.73-.49-2.64.06-19.94.16-39.87.13-59.81,0-3-.75-5.92-4.52-6.59a1.14,1.14,0,0,1-1-1.27c.12-.82.8-.8,1.41-.76a69.47,69.47,0,0,0,15.71-.79c2.35-.39,1.74,1.55,1.74,2.72,0,7.46,0,14.93,0,22.39Zm16.7,17.65c-.38-5.16-.4-10.31-2-15.24-.83-2.44-2.2-4.75-4.88-5.28-3.43-.69-6.15.76-8.15,3.68a10.43,10.43,0,0,0-1.64,6.25c0,8.92,0,17.83,0,26.75,0,4.74,2,6.71,6.84,6.53,3.66-.14,5.74-2.37,7.09-5.48C537.41,171.31,537.28,165.39,537.8,159.61Z"/><path class="cls-2" d="M450.48,274.4c4.48-1.24,6,1.19,7.29,4.94q11.44,32.49,23.36,64.81c1,2.83,1.07,3.93-2.39,3.76-7.15-.34-5.58,1.15-8.11-5.7-1.49-4-3-8-4.32-12.08a3.08,3.08,0,0,0-3.45-2.44c-8.31.1-16.63.12-24.95,0-2,0-2.8.8-3.4,2.49-1.69,4.85-3.64,9.61-5.18,14.5-.81,2.59-2.19,3.55-4.78,3.21a16.44,16.44,0,0,0-3.29,0c-2.18.16-2.8-.43-2-2.71,8.24-22.6,16.48-45.21,24.47-67.91C445.18,273.22,448,274.65,450.48,274.4Zm.36,10.64H450q-5.76,16.11-11.52,32.21c-.59,1.63.22,1.94,1.56,1.93,6.84,0,13.68,0,20.52,0,2.2,0,2-1,1.4-2.56-2.44-6.77-4.79-13.58-7.18-20.37C453.51,292.52,452.17,288.78,450.84,285Z"/><path class="cls-2" d="M472.74,215.4q71.61,0,143.21-.06c2.47,0,3.6.46,3.39,3.17-.13,1.73-.68,2.46-2.4,2.29-.73-.07-1.47,0-2.2,0q-142.49,0-285-.07c-1.48,0-3.9,1.43-4.47-1.55-.61-3.16.87-3.84,3.85-3.84Q400.95,215.46,472.74,215.4Z"/><path class="cls-2" d="M782.49,339.07c-6.85,10-15.65,11.69-25.68,8.63-6.3-1.92-9.48-6.69-9.84-13.19-.36-6.33,1.82-12.06,7.33-15s11.84-3.48,18.1-3.61c2.45,0,4.9-.19,7.34-.09,2,.07,2.43-.78,2.5-2.61.23-6.12-2.26-10.06-7.51-11.49-6.38-1.73-13.22.64-15.77,5.48-1.25,2.37-6.29,4-8.6,2.88-1.06-.54-.81-1.46-.62-2.23,1.31-5.1,3.27-9.48,8.94-11.49a35.11,35.11,0,0,1,21.6-.9c6.6,1.81,10.31,6.3,10.92,13.16.23,2.55.26,5.13.26,7.69,0,8.81,0,17.62,0,26.43,0,4.86-2.55,6.62-7.19,5.12-1.17-.37-1-1.15-1.13-2C783,343.93,782.78,342,782.49,339.07Zm-.32-11.58c0-1.35,0-2.69,0-4,0-.93-.21-1.77-1.36-1.74-6.69.19-13.51-.47-19.77,2.71-3.58,1.82-4.87,5-4.72,8.82a8.41,8.41,0,0,0,6,8C771.77,344.6,784.1,336.9,782.17,327.49Z"/><path class="cls-2" d="M604.11,323.88c-5.39,0-10.77,0-16.16,0-1.79,0-2.65.38-2.56,2.47.47,11.22,10.46,18.09,20.9,14.32a11.86,11.86,0,0,0,6.81-6.15c.85-1.71,7.69-3.12,9.1-1.83,1.08,1,.18,2.1-.17,3-3.14,8.26-9.75,12.12-18,13.1-9.92,1.18-18.36-1.74-24.21-10.46-2.61-3.89-3.42-8.22-3.93-12.7A35.57,35.57,0,0,1,578.32,308c4.57-11.3,13.75-14.94,25.94-13.47,10.41,1.26,17.16,8.85,18.54,20.18,1.12,9.17,1.12,9.17-8,9.17Zm-4.71-6.56c3.79,0,7.6-.16,11.38.05,2.8.16,3.33-1,3-3.45-1.23-7.95-6.64-12.8-14.19-12.57a14.65,14.65,0,0,0-14,13.54c-.17,1.75.28,2.49,2.11,2.45C591.56,317.27,595.48,317.32,599.4,317.32Z"/><path class="cls-2" d="M601,424.6c0,14.57-.06,29.13,0,43.7,0,2.58-.74,3.3-3.3,3.29-9.22,0-9.22.07-9.22-9.1,0-20.44-.09-40.88.08-61.32,0-3.62-1.08-4.67-4.54-4.4-3.65.28-7.35-.06-11,.1-3,.13-2.76-1.76-2.6-3.62s-1.11-4.33,2.6-4.33a37.42,37.42,0,0,0,11.59-1.54A10.29,10.29,0,0,0,592,380c1.16-4.21,4.67-1.79,7.09-2.11,2.62-.36,1.83,2,1.84,3.43C601,395.72,601,410.16,601,424.6Z"/><path class="cls-2" d="M256.33,339.48c-4.57,7.61-11.43,9.92-19.54,9.49-9.41-.51-14.67-5.34-15.54-14.21-.81-8.33,4.1-15,12.67-17.18,6.47-1.65,13.09-1.78,19.69-1.76,2.25,0,2.95-.72,2.93-3-.05-6.66-2-9-7.88-11.14s-12.92.74-15.42,5.42c-1.3,2.44-6.23,4.07-8.57,2.88-1-.53-.78-1.38-.64-2.2a14,14,0,0,1,8.54-11.17,30.89,30.89,0,0,1,24.63-.18,12.78,12.78,0,0,1,8.23,12c.33,12.48.2,25,.29,37.45,0,1.45-.59,2-2,1.9a22.48,22.48,0,0,0-3.67,0c-2.11.24-2.77-.68-2.82-2.69C257.23,343.44,257.46,341.57,256.33,339.48Zm-5.73-17.72c-7.12,0-12.23.95-15.37,2.68-3.54,2-4.79,5.09-4.64,8.88a8.39,8.39,0,0,0,5.74,7.82c9.31,3.65,21.5-4,20.31-13.39C255.88,321.84,256.5,321.76,250.6,321.76Z"/><path class="cls-2" d="M325.41,171.09c0,3.18,0,6.36,0,9.54,0,.7.06,1.59-.94,1.69s-1.1-.78-1.22-1.47c-.57-3.07-1.95-4.08-4.77-2.08-11,7.78-22.21,6.43-33,0-11.13-6.66-16.17-17.13-15.45-30,.63-11.32,5.77-20.79,15.56-26.25,10.31-5.76,21.52-7.28,32.26.08,3.84,2.64,3.86,2.62,5.31-1.73.25-.74.08-1.91,1.4-1.66.94.19.82,1.09.82,1.79q-.07,9.36-.18,18.72c0,.8.16,1.93-1.13,1.86-1.05-.06-1.17-1-1.32-1.91-.39-2.28-.7-4.6-1.3-6.83-1.76-6.58-6.25-10.5-12.77-11.69s-11.49,1.42-15.31,6.56a28.29,28.29,0,0,0-5.08,13.22c-1.48,10.32-1.36,20.55,3.13,30.22,5.32,11.47,19.35,13.57,27.11,4.2,2.71-3.27,3.19-7.33,4-11.27a24.11,24.11,0,0,0,.25-2.56c.1-1,.14-2.13,1.52-2s.9,1.27.91,2c.05,3.18,0,6.37,0,9.55Z"/><path class="cls-1" d="M531.22,15.92V36c0,3.92-.09,7.84,0,11.76.12,3.62-2.5,2.57-4.34,2.6s-4.29.84-4.26-2.72c.1-14.69,0-29.38.05-44.07,0-1.21-.15-2.85,1.55-2.77,2.64.12,5.69-1.42,7.76,1.63q6.09,8.94,12.25,17.84a139.75,139.75,0,0,0,10.89,14.41v-13c0-6,.14-12-.06-18-.1-3,1.45-3.19,3.63-3s4.85-1,4.82,3c-.1,14.57,0,29.14-.06,43.71,0,1.09.48,2.89-1.33,2.88-2.63,0-5.5,1.25-7.6-1.92-5.6-8.47-11.44-16.77-17.19-25.13l-5.16-7.51Z"/><path class="cls-2" d="M406.36,177.55c-4.43,5.35-9.89,7.13-16.29,5.84-8-1.6-11-11.63-5.51-18,2.32-2.7,5.48-4,8.68-5.27s6.63-2.5,9.89-3.88a5.46,5.46,0,0,0,3.59-5.8c-.13-2.07.06-4.17-.06-6.24-.34-6.28-5.75-9.41-11.53-6.82-1.23.54-1.18,1-.46,1.81.4.45.84.86,1.25,1.3,2.89,3.1,3.12,7.24.57,9.92s-7.34,3-10,.62a7.76,7.76,0,0,1-.48-10.36c1.34-1.51,3-3.18,4.8-3.8,7.44-2.53,15.07-3.49,22.58-.3,4.27,1.82,6.16,5.55,6.25,10,.17,8.93,0,17.87.24,26.8.08,2.78-1.78,7.38,4.27,6.52.18,0,.57.45.63.73.13.73-.5,1-1,1.36A12.22,12.22,0,0,1,406.36,177.55Zm.33-11.69a20,20,0,0,0,0-2.19c-.22-2.11,1.05-5.23-.62-6.09s-3.59,1.85-5.35,3c-4.28,2.85-6.61,6.76-5.62,12.1.65,3.47,3,5.36,6.06,5a6,6,0,0,0,5.54-6C406.73,169.75,406.7,167.81,406.69,165.86Z"/><path class="cls-2" d="M352.71,301c1.43,0,2-1.28,2.8-2.08,7-6.72,26-7.07,30.64,6.49a24.06,24.06,0,0,1,1.19,7.94c0,10.28-.1,20.56.06,30.84.05,2.85-.65,3.83-3.64,3.74-6-.2-6,0-6-6.08,0-9.05,0-18.11,0-27.17,0-6.24-2.34-10-7-11.65-5.32-1.86-12.67-.13-16,3.72a8.81,8.81,0,0,0-2,6.12c.06,10.4-.09,20.81.1,31.21.06,3.07-.83,4.24-3.86,3.79a11.49,11.49,0,0,0-2.93,0c-2.3.26-2.89-.75-2.88-2.95q.12-23.32,0-46.64c0-2.27.48-3.28,3-3.26C351.58,295.06,351.58,294.92,352.71,301Z"/><path class="cls-1" d="M411.9,25.69c0-7.22.08-14.43,0-21.64,0-2.47.6-3.54,3.27-3.45,6.48.2,13-.06,19.43.3,7.43.41,12,3.9,13.62,9.67,1.94,7-.19,12.71-6.59,17.07-1.53,1-1.76,1.86-1,3.55,2.52,5.43,4.75,11,7.25,16.42,1,2.23.37,2.58-1.82,2.76-4,.33-6.63-.44-7.89-4.85-1.2-4.2-3.4-8.11-5-12.2-.86-2.2-2-3.19-4.57-3.16-8.2.11-8.2,0-8.2,8.3,0,3.06-.11,6.12.05,9.17.11,2.16-.8,2.66-2.78,2.72-5.77.16-5.76.24-5.76-5.59ZM427.63,7.35c-1.71,0-3.42.05-5.13,0s-2.14.68-2.12,2.2c.05,3.91,0,7.82,0,11.73,0,1.17.15,2.27,1.7,2.25,3.78-.07,7.61.2,11.33-.33a7.72,7.72,0,0,0,6.8-8.57c-.39-4.31-3.45-7-8.2-7.25C430.57,7.3,429.1,7.36,427.63,7.35Z"/><path class="cls-1" d="M322.8,25.4a31.21,31.21,0,0,1-2.25,12.91C316.88,47,309.05,51.59,299.06,51c-9.4-.54-16.54-6-19.15-15-2.44-8.36-2.35-16.72,1.55-24.66S293.27-.62,302,.07c9.68.78,16.27,5.76,19.15,14.51A32.56,32.56,0,0,1,322.8,25.4Zm-35.18.16c-.07,4.07.31,8.06,2.13,11.79,2.53,5.17,6.86,7,12.36,6.55,4.88-.39,8.31-2.88,9.85-7.49a32,32,0,0,0-.18-21.88C310,9.61,306.2,7.3,301.06,7.14s-8.95,2-11.26,6.65C288,17.5,287.57,21.49,287.62,25.56Z"/><path class="cls-1" d="M687.64,25.4q0-10.81,0-21.63c0-1.45-.27-3.14,2-3.09,7.54.16,15.17-.5,22.52,1.88,7.66,2.48,12.17,7.65,13.75,15.62a34.54,34.54,0,0,1-.63,17c-2.47,8.1-8.32,12.69-16.53,14.35-6.3,1.27-12.68.55-19,.76-2.3.07-2.12-1.41-2.12-2.92Q687.65,36.41,687.64,25.4Zm8.42.09c0,5,0,10,0,15.05,0,1.33-.22,2.86,1.82,2.94,10.09.35,17.91-2.51,19.76-13.54a27.62,27.62,0,0,0-.45-11.3A13.1,13.1,0,0,0,706.54,8.27a47.42,47.42,0,0,0-6.93-.59c-2.68-.19-3.73.67-3.61,3.49C696.2,15.93,696.06,20.71,696.06,25.49Z"/><path class="cls-2" d="M581.84,155.11c-3.3,0-6.61.14-9.9-.05-2.49-.14-3.13.83-3.08,3.19.1,4.7.51,9.29,3.07,13.39a11,11,0,0,0,17.56,1.48c1.16-1.28,2.7-3.82,4-3,1.81,1.22-.33,3.22-1.09,4.71-3.52,6.92-9.54,9.69-17,9.52-7.76-.17-14.21-3.16-17.5-10.53a32.39,32.39,0,0,1,.24-28c4.59-9.59,17.33-14,27.06-9.73,5.86,2.54,10.32,10.83,9.49,17.26-.23,1.83-1.28,1.76-2.54,1.76H581.84Zm-6-2c7.93,0,8.25-.37,6.6-8.19a30.85,30.85,0,0,0-1.22-4.22c-.7-1.92-1.86-3.58-4-3.8s-3.91,1.12-5.08,3a17.31,17.31,0,0,0-2.25,5.77C568.29,153.07,568.28,153.07,575.88,153.08Z"/><path class="cls-1" d="M592,23.51,608.86,3.25c1.84-2.2,7.53-3.68,10-2.48,2,1,.2,1.87-.29,2.49-3.8,4.8-7.59,9.6-11.59,14.22-1.63,1.88-1.8,3.29-.49,5.46,4.77,8,9.29,16.1,14,24.12,1.47,2.49,1,3.12-1.9,3.35-4.06.32-6.48-1-8.36-4.68-2.92-5.78-6.51-11.22-9.7-16.86-1.17-2.07-1.81-1.94-3.7-.42-6.07,4.89-6.29,11.36-5.86,18.21.08,1.18.79,3.13-1,3.44-2.35.41-4.88.72-7.18-.3-.79-.35-.46-1.57-.46-2.4,0-14.57.07-29.14-.07-43.71,0-3.69,2.27-3.06,4.39-3S591.16-.18,591,3.6c-.19,6.55,0,13.1,0,19.65Z"/><path class="cls-2" d="M169.24,310.94c0-11,.07-22-.05-33.06,0-2.63.54-3.73,3.43-3.62,7.58.28,6.24-.82,6.27,6.15.07,18.24.11,36.49-.06,54.73,0,3.42.63,4.66,4.35,4.53,9-.3,18.12.09,27.18-.18,3.8-.12,3.31,2.05,3.35,4.39S214,348,210.46,348c-12.73-.23-25.47-.15-38.2,0-2.52,0-3.09-.85-3.07-3.18C169.29,333.47,169.24,322.21,169.24,310.94Z"/><path class="cls-2" d="M702.67,321.53a26.21,26.21,0,0,0,1.5,10.08c2.14,5.74,5.83,9.49,12.27,10,6.67.48,11.33-2.15,13.78-8.5.53-1.37,5.86-2.46,7.57-1.46,2.05,1.2.6,2.87.15,4.19-3.44,10-14.81,15.46-26.17,12.65q-14.19-3.51-17.36-17.73a38.27,38.27,0,0,1,.78-20.63c4.44-13.56,19.5-19.88,32.58-13.91,5.64,2.58,8.82,6.88,10.63,12.53.71,2.21.38,3.35-2.41,3.31-3.18,0-5.52-.1-7-3.88-1.86-4.59-6.31-6.22-11.18-6.21a13.26,13.26,0,0,0-11.64,6.12C703.3,312.18,702.58,316.72,702.67,321.53Z"/><path class="cls-1" d="M637.23,25.3c0-7.1.1-14.2-.05-21.3,0-2.54.74-3.44,3.33-3.41,8.7.13,17.39.16,26.08,0,3-.06,3.4,1.21,3.37,3.73s-.25,3.88-3.31,3.76c-5.87-.23-11.76,0-17.63-.11-2.45-.06-3.65.54-3.44,3.25a58.19,58.19,0,0,1,0,7.7c-.13,2.29.83,3,3,2.91,5-.13,10,.1,15-.1,2.71-.11,3.68.67,3.58,3.48-.09,2.51-.51,3.82-3.46,3.69-5-.23-10,0-15-.11-2.43-.07-3.28.82-3.15,3.2a68.07,68.07,0,0,1,0,8.08c-.13,2.25.7,3,2.94,3,6.37-.1,12.74.15,19.1-.11,3.39-.13,2.91,1.84,3,3.94.13,2.29-.18,3.57-3,3.51-9.05-.17-18.12-.15-27.17,0-2.66,0-3.29-.91-3.25-3.39C637.32,39.75,637.23,32.53,637.23,25.3Z"/><path class="cls-1" d="M478.15,570.46a16.5,16.5,0,0,1-16.75-16.7,16.89,16.89,0,1,1,33.77-.13C495.17,563.26,487.87,570.47,478.15,570.46Z"/><path class="cls-2" d="M635.67,174.62c0-2.33,0-4.65,0-7,0-.69-.17-1.62.8-1.79,1.26-.22,1.2.91,1.4,1.67a48.12,48.12,0,0,0,1.8,6.72c1.54,3.61,3.49,6.51,8,7.6,3.27.78,5.27-.6,7.06-2.06,2.15-1.75,1.74-4.7.8-7.2a13,13,0,0,0-4.18-5.48c-3.6-2.93-7.31-5.76-10.69-8.93-6.88-6.46-6.92-16.71.21-20.83,6.22-3.6,13.07-3.71,19.71-.64,2.15,1,4,2.18,5.27-1a.93.93,0,0,1,1.16-.62c.77.22.74.91.73,1.48,0,4.28-.13,8.56-.21,12.84,0,.62-.08,1.29-.85,1.38-1.17.15-1.35-.74-1.51-1.61a20.59,20.59,0,0,0-3.2-8.13,9,9,0,0,0-3.82-3.31c-3.8-1.68-7.86-.91-9.6,1.82s-1,6.35,2.12,9.21c4.4,4.07,9.65,7.07,14,11.2s6.22,8.87,4.52,14.53c-1.78,5.94-6.67,8.48-12.38,9.54a20.54,20.54,0,0,1-14.21-2.13c-1.9-1.06-3.84-2.07-5.14.83-.26.57-.68,1-1.43.75s-.62-1-.63-1.54c0-2.45,0-4.89,0-7.33Z"/><path class="cls-1" d="M503.45,50.28c-3,.66-4.32-.68-5.29-3.49C495.11,38,495,38,485.28,38c-9.35,0-9.35,0-12.35,8.64-1.1,3.16-5.48,5.06-8.41,3.54-1.7-.88-.46-2.16-.11-3.14,3.63-10.24,7.33-20.46,11-30.69C477,12,478.73,7.67,480.07,3.24c.85-2.77,2.76-2.75,4.87-2.58s4.86-1,6.06,2.46q7.72,22.14,15.8,44.17C508.46,51.83,504.94,49.8,503.45,50.28ZM486,10.31l-.9.06c-2.14,6.06-4.29,12.13-6.4,18.2-.54,1.56.41,1.91,1.73,1.91,3.42,0,6.84,0,10.26,0,1.05,0,2.15-.14,1.66-1.62C490.29,22.66,488.14,16.49,486,10.31Z"/><path class="cls-1" d="M339.52,25.56c0-7.1.09-14.2,0-21.3C339.43,1.65,340.1.45,343,.6c6.83.36,13.73-.64,20.49.91,10.19,2.34,15.33,12.58,11.06,21.92-2.7,5.91-7.78,8.2-13.83,8.8a62.25,62.25,0,0,1-9.16.21c-2.68-.14-3.77.61-3.6,3.46.23,3.78,0,7.59.1,11.38.07,2.09-.35,3.06-2.76,3.09-5.74.06-5.74.19-5.74-5.71ZM348,15.82v2.39c0,7.36,0,7.37,7.54,7.36a33.41,33.41,0,0,0,5.11-.16c3.79-.6,6.86-4.15,7.31-8.15a8.41,8.41,0,0,0-5.43-9,20.64,20.64,0,0,0-13.64-.35C346.53,8.68,348.49,13.45,348,15.82Z"/><path class="cls-2" d="M593.65,181.76c8.16-.87,7.23-6.12,7.23-10.88,0-8.07.09-16.15,0-24.23C600.81,143,601,139,596,138a.88.88,0,0,1-.79-1c.11-.79.74-.9,1.36-.86a67.36,67.36,0,0,0,15.73-.76c1.5-.25,1.61.66,1.62,1.72,0,1.41,0,2.82,0,5,2.31-2.13,3.58-4.28,5.71-5.45,3.73-2,7.61-3,11.49-.61,2.9,1.78,3.67,4.73,3.42,8s-1.72,5.68-4.95,6.53c-2.85.75-5.79.55-7.67-2.06-2-2.83-1.42-5.78.53-8.51.34-.47.91-.83.66-1.73-2.58-.33-4.34,1.12-5.83,2.93a14.47,14.47,0,0,0-3.36,9.49c0,7.47,0,14.93,0,22.4,0,5.05,1.16,6.35,6.6,8,.67.2,1.63.17,1.64,1.08s-1,.93-1.64.93q-12.3,0-24.59-.07C595.67,183,595.37,182.68,593.65,181.76Z"/><path class="cls-2" d="M286,320.32c0-4.89-.22-9.8.07-14.68.19-3.08-1-3.94-3.73-3.53-.36.05-.74,0-1.1,0-2.84.46-3.7-.61-3.72-3.56,0-3.16,1.25-3.87,3.88-3.46,3.71.58,5.8-.48,5.69-4.7a36.62,36.62,0,0,1,.9-6.53c.63-4,2.26-5,6.26-4.07,1.52.35,1.51,1.34,1.51,2.46,0,3.42.07,6.85,0,10.28-.06,1.88.6,2.67,2.53,2.57,2.2-.11,4.42.13,6.61-.06,3.1-.26,2.84,1.71,2.89,3.76s-.1,3.47-2.85,3.38-6.64-1.36-8.49.56-.58,5.82-.62,8.84c-.11,7.83-.07,15.66,0,23.5,0,4.88.93,5.7,5.86,5.78.86,0,1.71,0,2.57,0,1.94,0,3.9-.46,3.85,2.76,0,2.75-.44,4.55-3.66,4.39-1.47-.07-2.94,0-4.41,0-10.62,0-13.95-3.36-14-14.13C285.94,329.38,286,324.85,286,320.32Z"/><path class="cls-1" d="M244.26,29.35c0-6.11-.07-12.23,0-18.34,0-2-.6-2.87-2.71-2.78-3.17.13-6.37-.16-9.53.08-3,.23-3.45-1.26-3.36-3.73.08-2.21-.13-4,3.12-4,10.88.15,21.77.13,32.65,0,3.42,0,2.8,2.14,2.92,4.17.12,2.23-.13,3.79-3.06,3.54s-5.87.07-8.8-.09c-2.4-.13-3.13.73-3.11,3.15.12,11.74-.06,23.48.13,35.22.06,3.19-1,3.9-4,3.8-2.74-.09-4.63-.07-4.41-3.8C244.5,40.86,244.26,35.1,244.26,29.35Z"/><path class="cls-2" d="M643.92,302.45c1.25-.15,1.42-1.3,2-2a15.72,15.72,0,0,1,9.82-5.92c6.91-1.28,9.16,1.22,7.32,8-.39,1.41-1.18,1.19-2.19,1.09a23.69,23.69,0,0,0-7.65.29c-6.07,1.36-9.17,5.1-9.19,11.3,0,9.67-.09,19.33,0,29,0,2.72-.46,3.88-3.55,3.76-6-.25-6-.05-6-6.05,0-14.43.14-28.86-.1-43.29-.06-3.61,1.62-3.7,4.21-3.54,2.41.14,5.47-.88,4.89,3.53C643.37,299.83,643,301.25,643.92,302.45Z"/><path class="cls-2" d="M328.73,321.43c0,7.71-.09,15.42,0,23.13.05,2.48-.54,3.41-3.21,3.37-6.11-.09-6.11.05-6.11-5.94,0-14.44.15-28.88-.09-43.32-.07-3.9,2-3.69,4.54-3.59s5.11-.76,4.91,3.59C328.48,306.24,328.73,313.84,328.73,321.43Z"/><path class="cls-2" d="M673,321.41c0-7.34.2-14.69-.09-22-.14-3.66,1.14-4.86,4.56-4.32a7,7,0,0,0,1.83,0c2.2-.25,3,.61,3,2.89q-.12,23.67,0,47.34c0,1.88-.55,2.51-2.48,2.6-6.81.3-6.8.38-6.8-6.31Z"/><path class="cls-2" d="M678.36,284c-6.54-.08-5.62.6-5.65-5.49,0-5.14-.34-3.8,5.9-4.31,5.23-.43,3.53,3,3.93,5.6C683.19,283.93,681.09,284.61,678.36,284Z"/><path class="cls-2" d="M324.79,283.94c-5.63,0-5.63,0-5.63-4.42,0-5.2,0-5.23,5-5.19,5.39,0,4.46-.67,4.81,5C329.23,283.14,328.31,285,324.79,283.94Z"/><path class="cls-2" d="M225.42,660.32a28.76,28.76,0,0,1,2.37-11.6,30,30,0,0,1,6.52-9.55,31,31,0,0,1,21.93-8.82,34.64,34.64,0,0,1,6.43.55,36.09,36.09,0,0,1,4.88,1.25,23,23,0,0,1,3.19,1.31,9.66,9.66,0,0,1,1.28.73,1.11,1.11,0,0,1,.51.89v10a.64.64,0,0,1-.17.47.76.76,0,0,1-.38.21.58.58,0,0,1-.42-.08,1,1,0,0,1-.34-.38q-.8-1.9-1.92-4.1a18.6,18.6,0,0,0-2.81-4.07,14.08,14.08,0,0,0-4-3.1,11.78,11.78,0,0,0-5.55-1.23,11.42,11.42,0,0,0-7,2.13,15.78,15.78,0,0,0-4.73,5.83,30.85,30.85,0,0,0-2.68,8.65,62.3,62.3,0,0,0-.85,10.58A34.83,34.83,0,0,0,243,670a19.92,19.92,0,0,0,3.95,7.41,16.74,16.74,0,0,0,6.56,4.6,24.34,24.34,0,0,0,9.14,1.59,28.91,28.91,0,0,0,5.72-.6,21.59,21.59,0,0,0,5.81-2.06.74.74,0,0,1,.57-.11.78.78,0,0,1,.42.23.59.59,0,0,1,.13.45,1,1,0,0,1-.32.57,25.76,25.76,0,0,1-8.61,5.61,29.88,29.88,0,0,1-11.19,2,32.77,32.77,0,0,1-12.58-2.28,26.49,26.49,0,0,1-15.17-15.59A32.42,32.42,0,0,1,225.42,660.32Z"/><path class="cls-2" d="M314.28,684.64a.92.92,0,0,1,.93.23.8.8,0,0,1,0,1,5.73,5.73,0,0,1-.83,1.1,6.15,6.15,0,0,1-1.51,1.18,9.75,9.75,0,0,1-2.33.93,12.29,12.29,0,0,1-3.23.38,8.37,8.37,0,0,1-4.32-1A5.92,5.92,0,0,1,300.6,686a.45.45,0,0,0-.48-.3.89.89,0,0,0-.53.26l-.78.69a11,11,0,0,1-1.86,1.23,16.62,16.62,0,0,1-2.89,1.18,13.12,13.12,0,0,1-3.89.53,16.67,16.67,0,0,1-6.31-1.06,11.75,11.75,0,0,1-4.13-2.72,9.91,9.91,0,0,1-2.28-3.76,12.93,12.93,0,0,1-.7-4.16,9.41,9.41,0,0,1,1.88-5.82,11.42,11.42,0,0,1,4.87-3.72,15.7,15.7,0,0,1,3.36-.9l3.48-.57c1.16-.2,2.29-.45,3.4-.74a10.24,10.24,0,0,0,3.15-1.46,5.53,5.53,0,0,0,2.17-2.7,9.91,9.91,0,0,0,.61-3.5,9.33,9.33,0,0,0-.36-2.6,7.12,7.12,0,0,0-1-2.17,5.33,5.33,0,0,0-1.52-1.48,3.92,3.92,0,0,0-4.54.38,6.9,6.9,0,0,0-1.33,2.24c-.32.87-.62,1.78-.9,2.72a6.31,6.31,0,0,1-1.36,2.43,4.72,4.72,0,0,1-2,1.2,7.19,7.19,0,0,1-2.3.4,5.21,5.21,0,0,1-2-.38,4.6,4.6,0,0,1-1.51-1,4.24,4.24,0,0,1-1-1.52,5.13,5.13,0,0,1-.32-1.84,5.72,5.72,0,0,1,2.89-5,14.21,14.21,0,0,1,4.37-1.71,30.57,30.57,0,0,1,7-.65,29,29,0,0,1,8,.95,14,14,0,0,1,5.41,2.76,10.57,10.57,0,0,1,3,4.5,18.25,18.25,0,0,1,.95,6.1q0,4.1-.26,7.68t-.36,6.35a30.44,30.44,0,0,0,.11,4.56c.14,1.2.53,1.93,1.18,2.22a2.24,2.24,0,0,0,1.06.19A11.6,11.6,0,0,0,314.28,684.64Zm-14.65-18.87a.33.33,0,0,0-.21-.34.32.32,0,0,0-.38.13c-.23.25-.43.49-.61.72s-.43.49-.74.8c-.54.56-1.09,1.09-1.65,1.58l-1.69,1.5c-.56.45-1.12.9-1.66,1.35a13.52,13.52,0,0,0-1.55,1.48,8.43,8.43,0,0,0-1.62,2.76,9.57,9.57,0,0,0-.53,3.19,8,8,0,0,0,.34,2.3,6.28,6.28,0,0,0,1,2.07,5.26,5.26,0,0,0,4.37,2.05,4.37,4.37,0,0,0,2.47-.64,4.65,4.65,0,0,0,1.48-1.52,6.35,6.35,0,0,0,.74-1.79,6.82,6.82,0,0,0,.21-1.41Z"/><path class="cls-2" d="M319.85,685.61c0-.06-.06-.46-.19-1.2s-.26-1.57-.4-2.47-.28-1.75-.4-2.56-.21-1.3-.24-1.5c-.05-.39.06-.62.34-.69a.53.53,0,0,1,.64.23,7.37,7.37,0,0,0,.54.89c.34.5.81,1.12,1.4,1.85s1.3,1.52,2.13,2.37a20.08,20.08,0,0,0,2.79,2.34,15.08,15.08,0,0,0,3.35,1.77,10.64,10.64,0,0,0,3.88.7,5.25,5.25,0,0,0,3.78-1.31,4.53,4.53,0,0,0,1.37-3.46,8.45,8.45,0,0,0-.29-2.24,5.54,5.54,0,0,0-1.27-2.19A11.54,11.54,0,0,0,334.5,676a29.6,29.6,0,0,0-4.86-2.17,18.74,18.74,0,0,1-4.68-2.32,12.66,12.66,0,0,1-3.08-3,11.29,11.29,0,0,1-1.71-3.59,15,15,0,0,1-.53-4.07,12.39,12.39,0,0,1,.59-3.61,9.51,9.51,0,0,1,2.13-3.67,12,12,0,0,1,4.2-2.87,17,17,0,0,1,6.8-1.16,26.31,26.31,0,0,1,4.85.42,34.62,34.62,0,0,1,3.91,1,22.88,22.88,0,0,1,2.66,1l1.11.51a.67.67,0,0,1,.3.21.87.87,0,0,1,.08.29c0,.06.07.45.22,1.16s.28,1.5.42,2.35.28,1.61.42,2.32.21,1.1.21,1.18a.5.5,0,0,1-.29.61c-.26.13-.48,0-.68-.23a27.23,27.23,0,0,0-1.86-2.28,21.41,21.41,0,0,0-3.08-2.83,22,22,0,0,0-4-2.43,11.16,11.16,0,0,0-4.71-1,4.9,4.9,0,0,0-3.84,1.39,5,5,0,0,0-1.22,3.38,6.74,6.74,0,0,0,.29,2,4.23,4.23,0,0,0,1.27,1.84A12.11,12.11,0,0,0,332.2,662a32.16,32.16,0,0,0,4.91,1.84q6.17,1.9,9.33,5.15a11.55,11.55,0,0,1,3.17,8.4,12.85,12.85,0,0,1-.89,4.83A10,10,0,0,1,346,686.1a13.42,13.42,0,0,1-4.73,2.55,22.27,22.27,0,0,1-6.84.93,32.81,32.81,0,0,1-5.93-.49,35,35,0,0,1-4.39-1.07,21.13,21.13,0,0,1-2.81-1.12c-.67-.36-1.07-.57-1.18-.66A.72.72,0,0,1,320,686,1.89,1.89,0,0,1,319.85,685.61Z"/><path class="cls-2" d="M372.4,651.8a4.75,4.75,0,0,0-3.1,1.16,9.44,9.44,0,0,0-2.43,3.27,20.68,20.68,0,0,0-1.56,5.09,35.86,35.86,0,0,0-.55,6.56,21.18,21.18,0,0,0,.91,6.48,14.53,14.53,0,0,0,2.51,4.83,10.92,10.92,0,0,0,3.76,3,10.3,10.3,0,0,0,4.64,1.06,12.91,12.91,0,0,0,4.41-.72,22.2,22.2,0,0,0,3.55-1.6,19.72,19.72,0,0,0,2.53-1.69,7.7,7.7,0,0,1,1.37-1,.79.79,0,0,1,.95.1c.24.24.24.6,0,1.08-.17.31-.45.77-.84,1.39a16.71,16.71,0,0,1-1.59,2,23,23,0,0,1-2.38,2.3,18.14,18.14,0,0,1-3.23,2.15,18.87,18.87,0,0,1-4.14,1.58,19.79,19.79,0,0,1-5.12.62,23.25,23.25,0,0,1-7.9-1.27,15.86,15.86,0,0,1-9.81-9.73,25.59,25.59,0,0,1-.32-15.26,19.72,19.72,0,0,1,2.68-5.44,17.85,17.85,0,0,1,3.82-3.93,23.35,23.35,0,0,1,4.41-2.6,21.55,21.55,0,0,1,4.46-1.43,19.78,19.78,0,0,1,4-.44,24.74,24.74,0,0,1,5.28.52,15.68,15.68,0,0,1,4.14,1.48,8.34,8.34,0,0,1,2.7,2.24,4.49,4.49,0,0,1,1,2.76,5,5,0,0,1-.44,2.2,4.36,4.36,0,0,1-2.71,2.28,6.33,6.33,0,0,1-4.13-.21,4,4,0,0,1-1.84-1.57,6.68,6.68,0,0,1-.88-2.06c-.23-.85-.49-1.66-.79-2.45a6.57,6.57,0,0,0-1.16-2A2.62,2.62,0,0,0,372.4,651.8Z"/><path class="cls-2" d="M412.34,649.48a20.29,20.29,0,0,1,8,1.54,18.68,18.68,0,0,1,6.27,4.22,19.33,19.33,0,0,1,4.1,6.31,20.49,20.49,0,0,1,1.48,7.76,19.43,19.43,0,0,1-1.61,7.86,20.47,20.47,0,0,1-4.39,6.43A21.2,21.2,0,0,1,403.49,688a19.19,19.19,0,0,1-6.27-4.22,19.53,19.53,0,0,1-4.09-6.29,20.31,20.31,0,0,1-1.48-7.79,19.42,19.42,0,0,1,1.61-7.83,20.34,20.34,0,0,1,4.38-6.46,20.8,20.8,0,0,1,6.57-4.37A20.58,20.58,0,0,1,412.34,649.48Zm-.43,37.86a5,5,0,0,0,3.53-1.39,10.56,10.56,0,0,0,2.49-3.82,25.58,25.58,0,0,0,1.5-5.68,48.21,48.21,0,0,0,0-13.85,25.48,25.48,0,0,0-1.5-5.67,10.47,10.47,0,0,0-2.49-3.82,5.14,5.14,0,0,0-7.05,0,10.63,10.63,0,0,0-2.51,3.82,23.48,23.48,0,0,0-1.5,5.67,49.18,49.18,0,0,0,0,13.85,23.57,23.57,0,0,0,1.5,5.68,10.72,10.72,0,0,0,2.51,3.82A5,5,0,0,0,411.91,687.34Z"/><path class="cls-2" d="M500.35,686.16c.36.28.56.52.59.72a.9.9,0,0,1-.3.67c-.14.14-.36.33-.65.57a5,5,0,0,1-1.21.68,9.86,9.86,0,0,1-1.92.54,13.75,13.75,0,0,1-2.76.24,10.35,10.35,0,0,1-3.61-.59,12.77,12.77,0,0,1-2.85-1.48,16.72,16.72,0,0,1-2.3-1.94c-.69-.71-1.34-1.35-2-1.94a9.61,9.61,0,0,1-.85-.89c-.33-.39-.73-.89-1.18-1.48a.66.66,0,0,0-.55-.32.49.49,0,0,0-.42.36,17.88,17.88,0,0,1-2,3.25,12.71,12.71,0,0,1-6.26,4.39,13.69,13.69,0,0,1-4.29.64,14.17,14.17,0,0,1-4.6-.72,10.39,10.39,0,0,1-3.67-2.13,9.77,9.77,0,0,1-2.45-3.51,12.28,12.28,0,0,1-.89-4.83,12,12,0,0,1,1.12-5.17,18.63,18.63,0,0,1,2.89-4.39,25.4,25.4,0,0,1,3.93-3.61,38.65,38.65,0,0,1,4.18-2.74c.42-.23.5-.61.25-1.14a34.1,34.1,0,0,1-2-4.92,14.26,14.26,0,0,1-.71-4.12,7.82,7.82,0,0,1,1-4.09,8.93,8.93,0,0,1,2.74-2.87,12.47,12.47,0,0,1,3.93-1.69,19.27,19.27,0,0,1,4.58-.55,12.55,12.55,0,0,1,3.42.47,9.43,9.43,0,0,1,3,1.39,6.88,6.88,0,0,1,2.09,2.36,7,7,0,0,1,.78,3.38,7.65,7.65,0,0,1-1.66,5,11.38,11.38,0,0,1-4.37,3.23,1.16,1.16,0,0,0-.47.36c-.08.13,0,.35.13.65q1.35,2.41,3,5c1.13,1.71,2.29,3.4,3.5,5.09q.47.68.93.09a18.49,18.49,0,0,1,3.7-3.51,6.92,6.92,0,0,1,4-1.31,5.15,5.15,0,0,1,3.82,1.42,5.22,5.22,0,0,1,1.41,3.86,5.39,5.39,0,0,1-.29,1.67,4.73,4.73,0,0,1-.91,1.56,5.24,5.24,0,0,1-1.52,1.16,4.64,4.64,0,0,1-2.13.46,3.92,3.92,0,0,1-4-2.61c-.14-.4-.3-.82-.49-1.27a1,1,0,0,0-1.07-.68,1.52,1.52,0,0,0-.72.24,5.92,5.92,0,0,0-.89.61.58.58,0,0,0-.08.89q1.77,2.49,3.5,4.74t3.19,4.08c1,1.21,1.84,2.23,2.6,3.06A16.3,16.3,0,0,0,500.35,686.16Zm-25.29-5.32a9.68,9.68,0,0,0,2.11-.23A10.4,10.4,0,0,0,479,680c.36-.17.55-.38.55-.62a1.27,1.27,0,0,0-.21-.69c-.74-1-1.5-2-2.28-3.13s-1.59-2.31-2.41-3.56-1.62-2.54-2.4-3.85-1.54-2.61-2.24-3.9c-.12-.22-.26-.34-.45-.34a.74.74,0,0,0-.52.26,8.55,8.55,0,0,0-2.18,3.18,11.19,11.19,0,0,0-.78,4.24,10.28,10.28,0,0,0,.68,3.82,8.35,8.35,0,0,0,1.88,2.92,8.45,8.45,0,0,0,2.82,1.86A9.65,9.65,0,0,0,475.06,680.84Zm5.24-34.49a6.27,6.27,0,0,0-1.29.13,3.14,3.14,0,0,0-1.21.5,3,3,0,0,0-.9,1.06,3.67,3.67,0,0,0-.36,1.73,8.38,8.38,0,0,0,.76,3c.5,1.24,1.18,2.66,2,4.26a.87.87,0,0,0,.43.4,1,1,0,0,0,.67-.15,8.63,8.63,0,0,0,2.22-1.54,6.93,6.93,0,0,0,1.26-1.64,5.49,5.49,0,0,0,.6-1.63,8.71,8.71,0,0,0,.14-1.43,5.63,5.63,0,0,0-.27-1.73,4.37,4.37,0,0,0-.82-1.5,4.17,4.17,0,0,0-1.38-1.06A4.32,4.32,0,0,0,480.3,646.35Z"/><path class="cls-2" d="M525,660.32a28.92,28.92,0,0,1,2.36-11.6,30.05,30.05,0,0,1,6.53-9.55,31,31,0,0,1,21.93-8.82,34.64,34.64,0,0,1,6.43.55,36.09,36.09,0,0,1,4.88,1.25,23,23,0,0,1,3.19,1.31,9.66,9.66,0,0,1,1.28.73,1.11,1.11,0,0,1,.51.89v10a.64.64,0,0,1-.17.47.76.76,0,0,1-.38.21.58.58,0,0,1-.42-.08,1,1,0,0,1-.34-.38q-.8-1.9-1.92-4.1a19,19,0,0,0-2.81-4.07,14.08,14.08,0,0,0-4-3.1,11.78,11.78,0,0,0-5.55-1.23,11.47,11.47,0,0,0-7,2.13,15.85,15.85,0,0,0-4.72,5.83,30.85,30.85,0,0,0-2.68,8.65,62.3,62.3,0,0,0-.85,10.58,34.49,34.49,0,0,0,1.33,10,19.92,19.92,0,0,0,4,7.41,16.74,16.74,0,0,0,6.56,4.6,24.34,24.34,0,0,0,9.14,1.59A28.91,28.91,0,0,0,568,683,21.59,21.59,0,0,0,573.8,681a.74.74,0,0,1,.57-.11.78.78,0,0,1,.42.23.55.55,0,0,1,.12.45,1,1,0,0,1-.31.57,25.76,25.76,0,0,1-8.61,5.61,29.92,29.92,0,0,1-11.19,2,32.77,32.77,0,0,1-12.58-2.28,26.49,26.49,0,0,1-15.17-15.59A32.42,32.42,0,0,1,525,660.32Z"/><path class="cls-2" d="M613.9,684.64a.89.89,0,0,1,.92.23.78.78,0,0,1,0,1,6.27,6.27,0,0,1-2.35,2.28,9.49,9.49,0,0,1-2.32.93,12.29,12.29,0,0,1-3.23.38,8.35,8.35,0,0,1-4.32-1,5.92,5.92,0,0,1-2.43-2.38.46.46,0,0,0-.49-.3.89.89,0,0,0-.52.26l-.78.69a11,11,0,0,1-1.86,1.23,16.62,16.62,0,0,1-2.89,1.18,13.12,13.12,0,0,1-3.89.53,16.64,16.64,0,0,1-6.31-1.06,11.75,11.75,0,0,1-4.13-2.72,9.91,9.91,0,0,1-2.28-3.76,12.93,12.93,0,0,1-.7-4.16,9.35,9.35,0,0,1,1.88-5.82,11.36,11.36,0,0,1,4.87-3.72,15.7,15.7,0,0,1,3.36-.9l3.48-.57c1.15-.2,2.29-.45,3.4-.74a10.08,10.08,0,0,0,3.14-1.46,5.55,5.55,0,0,0,2.18-2.7,9.91,9.91,0,0,0,.61-3.5,9.33,9.33,0,0,0-.36-2.6,7.36,7.36,0,0,0-1-2.17,5.33,5.33,0,0,0-1.52-1.48,3.92,3.92,0,0,0-4.54.38,6.73,6.73,0,0,0-1.33,2.24c-.32.87-.63,1.78-.91,2.72a6.16,6.16,0,0,1-1.35,2.43,4.72,4.72,0,0,1-2,1.2,7.19,7.19,0,0,1-2.3.4,5.17,5.17,0,0,1-2-.38,4.75,4.75,0,0,1-1.52-1,4.38,4.38,0,0,1-1-1.52,5.35,5.35,0,0,1-.31-1.84,5.72,5.72,0,0,1,2.89-5,14.21,14.21,0,0,1,4.37-1.71,30.57,30.57,0,0,1,7-.65,29,29,0,0,1,8,.95,14,14,0,0,1,5.41,2.76,10.46,10.46,0,0,1,3,4.5,18,18,0,0,1,.95,6.1q0,4.1-.25,7.68t-.36,6.35a30.44,30.44,0,0,0,.11,4.56c.14,1.2.53,1.93,1.18,2.22a2.24,2.24,0,0,0,1.06.19A11.6,11.6,0,0,0,613.9,684.64Zm-14.65-18.87a.33.33,0,0,0-.21-.34.32.32,0,0,0-.38.13c-.23.25-.43.49-.62.72s-.42.49-.73.8c-.54.56-1.09,1.09-1.65,1.58s-1.13,1-1.69,1.5l-1.67,1.35a14.3,14.3,0,0,0-1.54,1.48,8.43,8.43,0,0,0-1.62,2.76,9.57,9.57,0,0,0-.53,3.19,8,8,0,0,0,.34,2.3,6.28,6.28,0,0,0,1,2.07,5.26,5.26,0,0,0,4.37,2.05,4.39,4.39,0,0,0,2.47-.64,4.76,4.76,0,0,0,1.48-1.52,6.35,6.35,0,0,0,.74-1.79,6.82,6.82,0,0,0,.21-1.41Z"/><path class="cls-2" d="M619.47,685.61c0-.06-.07-.46-.19-1.2s-.26-1.57-.4-2.47-.28-1.75-.4-2.56-.21-1.3-.24-1.5c0-.39.06-.62.34-.69a.52.52,0,0,1,.63.23c0,.08.22.38.55.89s.81,1.12,1.4,1.85,1.3,1.52,2.13,2.37a20.59,20.59,0,0,0,2.78,2.34,15.37,15.37,0,0,0,3.36,1.77,10.61,10.61,0,0,0,3.88.7,5.25,5.25,0,0,0,3.78-1.31,4.53,4.53,0,0,0,1.37-3.46,8.88,8.88,0,0,0-.29-2.24,5.54,5.54,0,0,0-1.27-2.19,11.74,11.74,0,0,0-2.78-2.18,29.6,29.6,0,0,0-4.86-2.17,18.57,18.57,0,0,1-4.68-2.32,12.89,12.89,0,0,1-3.09-3,11.74,11.74,0,0,1-1.71-3.59,15.39,15.39,0,0,1-.52-4.07,12.39,12.39,0,0,1,.59-3.61,9.51,9.51,0,0,1,2.13-3.67,12,12,0,0,1,4.2-2.87,17,17,0,0,1,6.8-1.16,26.31,26.31,0,0,1,4.85.42,34.62,34.62,0,0,1,3.91,1,22,22,0,0,1,2.65,1l1.12.51a.67.67,0,0,1,.3.21,1.21,1.21,0,0,1,.08.29c0,.06.07.45.21,1.16s.29,1.5.43,2.35.28,1.61.42,2.32.21,1.1.21,1.18a.5.5,0,0,1-.3.61c-.25.13-.47,0-.67-.23-.4-.56-1-1.32-1.86-2.28a21.41,21.41,0,0,0-3.08-2.83,22,22,0,0,0-4-2.43,11.16,11.16,0,0,0-4.71-1,4.52,4.52,0,0,0-5.06,4.77,6.42,6.42,0,0,0,.29,2,4.23,4.23,0,0,0,1.27,1.84,11.9,11.9,0,0,0,2.81,1.79,32.16,32.16,0,0,0,4.91,1.84q6.16,1.9,9.33,5.15a11.55,11.55,0,0,1,3.17,8.4,12.85,12.85,0,0,1-.89,4.83,10,10,0,0,1-2.74,3.85,13.42,13.42,0,0,1-4.73,2.55,22.27,22.27,0,0,1-6.84.93,32.81,32.81,0,0,1-5.93-.49,35,35,0,0,1-4.39-1.07,20.58,20.58,0,0,1-2.81-1.12c-.67-.36-1.07-.57-1.18-.66a.72.72,0,0,1-.15-.25A3,3,0,0,1,619.47,685.61Z"/><path class="cls-2" d="M672,651.8a4.75,4.75,0,0,0-3.1,1.16,9.44,9.44,0,0,0-2.43,3.27,20.26,20.26,0,0,0-1.56,5.09,35.86,35.86,0,0,0-.55,6.56,21.18,21.18,0,0,0,.91,6.48,14.53,14.53,0,0,0,2.51,4.83,10.92,10.92,0,0,0,3.76,3,10.3,10.3,0,0,0,4.64,1.06,13,13,0,0,0,4.41-.72,22.2,22.2,0,0,0,3.55-1.6,20.45,20.45,0,0,0,2.53-1.69,7.7,7.7,0,0,1,1.37-1,.79.79,0,0,1,1,.1c.24.24.23.6,0,1.08-.17.31-.45.77-.84,1.39a17.76,17.76,0,0,1-1.59,2,23,23,0,0,1-2.38,2.3,18.14,18.14,0,0,1-3.23,2.15,19.06,19.06,0,0,1-4.14,1.58,19.81,19.81,0,0,1-5.13.62,23.24,23.24,0,0,1-7.89-1.27,15.86,15.86,0,0,1-9.81-9.73,25.59,25.59,0,0,1-.32-15.26,19.45,19.45,0,0,1,2.68-5.44,17.63,17.63,0,0,1,3.82-3.93,23,23,0,0,1,4.41-2.6,21.66,21.66,0,0,1,4.45-1.43,20,20,0,0,1,4-.44,24.81,24.81,0,0,1,5.28.52,15.68,15.68,0,0,1,4.14,1.48,8.34,8.34,0,0,1,2.7,2.24,4.55,4.55,0,0,1,1,2.76,4.81,4.81,0,0,1-.45,2.2,4.23,4.23,0,0,1-1.14,1.45,4.35,4.35,0,0,1-1.56.83,6.33,6.33,0,0,1-4.13-.21,4,4,0,0,1-1.84-1.57,6.68,6.68,0,0,1-.89-2.06,23.35,23.35,0,0,0-.78-2.45,6.57,6.57,0,0,0-1.16-2A2.62,2.62,0,0,0,672,651.8Z"/><path class="cls-2" d="M712,649.48a20.3,20.3,0,0,1,8,1.54,18.68,18.68,0,0,1,6.27,4.22,19.33,19.33,0,0,1,4.1,6.31,20.49,20.49,0,0,1,1.47,7.76,19.42,19.42,0,0,1-1.6,7.86A21,21,0,0,1,703.11,688a19.19,19.19,0,0,1-6.27-4.22,19.53,19.53,0,0,1-4.09-6.29,20.31,20.31,0,0,1-1.48-7.79,19.41,19.41,0,0,1,1.6-7.83,20.54,20.54,0,0,1,4.39-6.46,20.8,20.8,0,0,1,6.57-4.37A20.53,20.53,0,0,1,712,649.48Zm-.42,37.86a5,5,0,0,0,3.53-1.39,10.82,10.82,0,0,0,2.49-3.82,25.06,25.06,0,0,0,1.49-5.68,47.27,47.27,0,0,0,0-13.85,25,25,0,0,0-1.49-5.67,10.73,10.73,0,0,0-2.49-3.82,5.14,5.14,0,0,0-7,0,10.77,10.77,0,0,0-2.52,3.82A24,24,0,0,0,704,662.6a49.18,49.18,0,0,0,0,13.85,24.05,24.05,0,0,0,1.49,5.68A10.86,10.86,0,0,0,708,686,5,5,0,0,0,711.53,687.34Z"/></g></svg>