<?xml version="1.0" encoding="utf-8"?>
<!-- Generator: Adobe Illustrator 25.0.0, SVG Export Plug-In . SVG Version: 6.00 Build 0)  -->
<svg version="1.1" id="Layer_1" xmlns="http://www.w3.org/2000/svg" xmlns:xlink="http://www.w3.org/1999/xlink" x="0px" y="0px"
	 viewBox="0 0 1396.7 194.8" style="enable-background:new 0 0 1396.7 194.8;" xml:space="preserve">
<style type="text/css">
	.st0{fill:url(#SVGID_1_);}
	.st1{fill:url(#SVGID_2_);}
	.st2{fill:url(#SVGID_3_);}
	.st3{fill:url(#SVGID_4_);}
	.st4{fill:url(#SVGID_5_);}
	.st5{fill:url(#SVGID_6_);}
	.st6{fill:url(#SVGID_7_);}
	.st7{fill:url(#SVGID_8_);}
	.st8{fill:url(#SVGID_9_);}
	.st9{fill:url(#SVGID_10_);}
	.st10{fill:url(#SVGID_11_);}
	.st11{fill:url(#SVGID_12_);}
</style>
<g>
	
		<linearGradient id="SVGID_1_" gradientUnits="userSpaceOnUse" x1="86.27" y1="198.5051" x2="86.27" y2="-71.4086" gradientTransform="matrix(1 0 0 -1 0 196.46)">
		<stop  offset="0" style="stop-color:#0047A0"/>
		<stop  offset="1" style="stop-color:#1A1E34"/>
		<stop  offset="1" style="stop-color:#01051B"/>
	</linearGradient>
	<path class="st0" d="M0,108.5c0,47.6,38.7,86.3,86.3,86.3s86.3-38.7,86.3-86.3V0H0V108.5z M157.3,62.3h-95v46.2
		c0,13.2,10.8,24,24,24v15.9c-22,0-39.9-17.9-39.9-39.9V46.4h110.9V62.3z M15.2,15.2h142.1v15.9H31.1v77.4
		c0,30.4,24.7,55.1,55.1,55.1v15.9c-39.2,0-71-31.9-71-71L15.2,15.2L15.2,15.2z"/>
	<g>
		
			<linearGradient id="SVGID_2_" gradientUnits="userSpaceOnUse" x1="267.4749" y1="166.1597" x2="267.4749" y2="-85.1768" gradientTransform="matrix(1 0 0 -1 0 196.46)">
			<stop  offset="0" style="stop-color:#0047A0"/>
			<stop  offset="1" style="stop-color:#1A1E34"/>
			<stop  offset="1" style="stop-color:#01051B"/>
		</linearGradient>
		<path class="st1" d="M257.9,59.7c2.3-4.4,5.2-7.8,8.6-10.2c3.4-2.4,7.5-3.6,12.1-3.6c0.9,0,2,0.1,3.1,0.2s2.4,0.3,3.8,0.5l0.3,0.2
			c4.1,1.2,7.6,3.1,10.7,5.7s5.8,5.4,8,8.5s4,6.1,5.4,9.2s2.4,5.6,3,7.7h1.6l-2.2-31c-5.9-1.6-11.7-2.8-17.3-3.8
			c-5.6-0.9-11.3-1.4-17-1.5H277c-8.6,0-16.4,1.4-23.4,4.1c-7,2.8-12.9,6.6-17.8,11.5s-8.7,10.7-11.4,17.5c-2.7,6.7-4,14.1-4,22
			c0,7.8,1.4,14.9,4.3,21.4s6.8,12,11.9,16.7c5.1,4.6,11.1,8.2,18.1,10.8s14.6,3.8,22.9,3.8h0.7c0.2,0,0.5,0,0.7,0
			c0.2,0,0.5,0,0.7-0.1c5.4-0.1,10.8-0.7,16.2-1.6c5.4-0.9,10.8-2.1,16.4-3.7l2.2-30.9h-1.6c-0.4,1.3-1,3-1.8,4.8
			c-0.8,1.8-1.7,3.8-2.8,5.8s-2.4,4.1-3.8,6.2c-1.5,2.1-3.2,4-5,5.9s-3.9,3.5-6.2,4.9c-2.3,1.5-4.8,2.6-7.5,3.4l-0.5,0.3
			c-1.3,0.2-2.4,0.4-3.5,0.5c-1.1,0.1-2,0.2-2.9,0.2c-4.3,0-8.2-1.1-11.7-3.3s-6.3-5.4-8.7-9.6s-4.2-9.3-5.5-15.4
			s-1.9-12.9-1.9-20.6c0-7.6,0.5-14.5,1.7-20.7C253.9,69.3,255.6,64.1,257.9,59.7z"/>
		
			<linearGradient id="SVGID_3_" gradientUnits="userSpaceOnUse" x1="373.32" y1="166.1597" x2="373.32" y2="-85.1768" gradientTransform="matrix(1 0 0 -1 0 196.46)">
			<stop  offset="0" style="stop-color:#0047A0"/>
			<stop  offset="1" style="stop-color:#1A1E34"/>
			<stop  offset="1" style="stop-color:#01051B"/>
		</linearGradient>
		<path class="st2" d="M382.6,43.2h-33v1.2l9.2,15.9l-27.3,71.9L319,146.5v1.2h31.6v-1.2l-13.9-14.7h-0.1l6-16.1h37.2l5.8,16.2
			l-11,14.6v1.2h53v-1.2l-11-14.6L382.6,43.2z M344.2,111.5l17.4-46.4l0.3,0.6l16.4,45.8L344.2,111.5L344.2,111.5z"/>
		
			<linearGradient id="SVGID_4_" gradientUnits="userSpaceOnUse" x1="468.17" y1="166.1597" x2="468.17" y2="-85.1768" gradientTransform="matrix(1 0 0 -1 0 196.46)">
			<stop  offset="0" style="stop-color:#0047A0"/>
			<stop  offset="1" style="stop-color:#1A1E34"/>
			<stop  offset="1" style="stop-color:#01051B"/>
		</linearGradient>
		<path class="st3" d="M498.1,96.6c-2.8-2.8-6-5.2-9.6-7.4c-3.6-2.2-7.4-4.3-11.3-6.3c-2.9-1.5-5.8-3-8.8-4.5c-3-1.5-5.7-3.2-8.1-5
			c-2.4-1.8-4.4-3.7-6-5.8c-1.6-2.1-2.4-4.4-2.4-7c0-2,0.3-3.9,1-5.7s1.7-3.3,2.9-4.7c1.3-1.3,2.8-2.4,4.5-3.2
			c1.8-0.8,3.8-1.2,6-1.2c1.5,0,3.2,0,4.9,0.1c1.7,0.1,3.7,0.5,5.9,1.2c2.7,1.3,5.2,3.2,7.7,5.5c2.5,2.3,4.7,4.8,6.8,7.4
			c2,2.6,3.8,5.1,5.3,7.5c1.5,2.4,2.6,4.3,3.3,5.8h1l-2-26.6c-1.7-0.6-3.7-1.3-5.9-1.9c-2.2-0.6-4.5-1.2-7-1.7
			c-2.5-0.5-5-0.9-7.7-1.2s-5.3-0.5-7.9-0.5h-0.1c-5.9,0-11.4,0.6-16.4,1.8c-5.1,1.2-9.5,3-13.2,5.4s-6.7,5.5-8.8,9.2
			s-3.2,8.2-3.2,13.3c0,4.3,0.9,8,2.7,11.3s4.1,6.3,6.9,8.9c2.9,2.7,6.1,5.1,9.7,7.3s7.2,4.3,10.8,6.2c3.2,1.7,6.3,3.5,9.3,5.2
			c3,1.7,5.7,3.5,8,5.3c2.3,1.9,4.1,3.9,5.5,6c1.4,2.1,2.1,4.5,2.1,7c0,1.9-0.3,3.8-1,5.8s-1.7,3.7-3.1,5.3
			c-1.4,1.6-3.2,2.9-5.3,3.9c-2.1,1-4.6,1.5-7.5,1.5h-2c-3.5,0-6.8-0.8-9.8-2.5c-3.1-1.6-6-3.8-8.7-6.5c-2.7-2.7-5.3-5.8-7.8-9.2
			c-2.5-3.5-4.9-7-7.2-10.6h-1.2l2,27.7c1.8,0.7,3.9,1.4,6.3,2.1c2.4,0.7,5,1.2,7.8,1.7c2.8,0.5,5.8,0.9,9,1.2s6.3,0.4,9.6,0.4
			c6,0,11.6-0.6,16.8-1.8s9.7-3.1,13.4-5.6c3.8-2.5,6.8-5.7,8.9-9.7c2.2-3.9,3.3-8.6,3.3-14c0-4.7-0.8-8.8-2.5-12.3
			C503.1,102.5,500.9,99.3,498.1,96.6z"/>
		
			<linearGradient id="SVGID_5_" gradientUnits="userSpaceOnUse" x1="560.8649" y1="166.1597" x2="560.8649" y2="-85.1768" gradientTransform="matrix(1 0 0 -1 0 196.46)">
			<stop  offset="0" style="stop-color:#0047A0"/>
			<stop  offset="1" style="stop-color:#1A1E34"/>
			<stop  offset="1" style="stop-color:#01051B"/>
		</linearGradient>
		<path class="st4" d="M551.3,59.7c2.3-4.4,5.2-7.8,8.6-10.2c3.4-2.4,7.5-3.6,12.1-3.6c0.9,0,2,0.1,3.1,0.2c1.2,0.1,2.4,0.3,3.8,0.5
			l0.3,0.2c4.1,1.2,7.6,3.1,10.7,5.7c3.1,2.6,5.7,5.4,8,8.5c2.2,3.1,4,6.1,5.4,9.2s2.4,5.6,3,7.7h1.6l-2.2-31
			c-5.9-1.6-11.7-2.8-17.3-3.8c-5.6-0.9-11.3-1.4-17-1.5h-0.9c-8.6,0-16.4,1.4-23.4,4.1s-12.9,6.6-17.8,11.5s-8.7,10.7-11.4,17.5
			c-2.7,6.7-4,14.1-4,22c0,7.8,1.4,14.9,4.3,21.4c2.8,6.5,6.8,12,11.9,16.7c5.1,4.6,11.1,8.2,18.1,10.8s14.6,3.8,22.9,3.8h0.7
			c0.2,0,0.5,0,0.7,0c0.2,0,0.4,0,0.7-0.1c5.4-0.1,10.8-0.7,16.2-1.6c5.4-0.9,10.8-2.1,16.4-3.7l2.2-30.9h-1.6c-0.4,1.3-1,3-1.8,4.8
			c-0.8,1.8-1.7,3.8-2.8,5.8c-1.1,2-2.4,4.1-3.8,6.2c-1.5,2.1-3.2,4-5,5.9s-3.9,3.5-6.2,4.9c-2.3,1.5-4.8,2.6-7.5,3.4l-0.5,0.3
			c-1.3,0.2-2.4,0.4-3.5,0.5c-1.1,0.1-2,0.2-2.9,0.2c-4.3,0-8.2-1.1-11.7-3.3c-3.4-2.2-6.3-5.4-8.7-9.6c-2.4-4.2-4.2-9.3-5.5-15.4
			s-1.9-12.9-1.9-20.6c0-7.6,0.5-14.5,1.7-20.7C547.3,69.3,549,64.1,551.3,59.7z"/>
		
			<linearGradient id="SVGID_6_" gradientUnits="userSpaceOnUse" x1="669.245" y1="166.1597" x2="669.245" y2="-85.1768" gradientTransform="matrix(1 0 0 -1 0 196.46)">
			<stop  offset="0" style="stop-color:#0047A0"/>
			<stop  offset="1" style="stop-color:#1A1E34"/>
			<stop  offset="1" style="stop-color:#01051B"/>
		</linearGradient>
		<path class="st5" d="M708.4,56.8c-4.8-4.8-10.6-8.5-17.3-11.1c-6.7-2.7-14.1-4-22.1-4c-8,0-15.4,1.3-22,4
			c-6.7,2.7-12.3,6.4-17.1,11.2c-4.7,4.8-8.4,10.5-11.1,17.1c-2.6,6.6-4,13.8-4,21.7c0,7.9,1.3,15.1,4,21.7
			c2.6,6.6,6.3,12.2,11.1,17s10.4,8.5,17.1,11.1c6.7,2.6,14,4,22,4c5.4,0,10.5-0.6,15.3-1.8c4.8-1.2,9.2-2.9,13.2-5.2
			c4-2.2,7.7-4.9,10.9-8.1c3.2-3.2,6-6.8,8.2-10.8s4-8.4,5.2-13.1c1.2-4.7,1.8-9.7,1.8-15c0-7.8-1.3-15-4-21.6
			C716.9,67.2,713.2,61.5,708.4,56.8z M691.5,116.6c-0.9,6.1-2.4,11.3-4.3,15.5c-2,4.2-4.4,7.5-7.4,9.7s-6.6,3.3-10.7,3.3
			c-4.1,0-7.6-1.1-10.5-3.3c-2.9-2.2-5.4-5.5-7.3-9.7c-1.9-4.2-3.4-9.4-4.3-15.5c-0.9-6.1-1.4-13.1-1.4-20.9s0.5-14.8,1.4-21
			c0.9-6.2,2.3-11.4,4.2-15.6c1.9-4.2,4.3-7.5,7.3-9.7c3-2.2,6.5-3.4,10.6-3.4s7.7,1.1,10.7,3.3c3,2.2,5.5,5.5,7.4,9.7
			c1.9,4.3,3.4,9.5,4.3,15.6c0.9,6.1,1.4,13.2,1.4,21C692.9,103.5,692.4,110.5,691.5,116.6z"/>
		
			<linearGradient id="SVGID_7_" gradientUnits="userSpaceOnUse" x1="940.6149" y1="166.1597" x2="940.6149" y2="-85.1768" gradientTransform="matrix(1 0 0 -1 0 196.46)">
			<stop  offset="0" style="stop-color:#0047A0"/>
			<stop  offset="1" style="stop-color:#1A1E34"/>
			<stop  offset="1" style="stop-color:#01051B"/>
		</linearGradient>
		<path class="st6" d="M931,59.7c2.3-4.4,5.2-7.8,8.6-10.2c3.4-2.4,7.5-3.6,12.1-3.6c0.9,0,2,0.1,3.1,0.2s2.4,0.3,3.8,0.5l0.3,0.2
			c4.1,1.2,7.6,3.1,10.7,5.7s5.8,5.4,7.9,8.5s4,6.1,5.4,9.2s2.4,5.6,3,7.7h1.6l-2.2-31c-5.9-1.6-11.7-2.8-17.3-3.8
			c-5.6-0.9-11.3-1.4-17-1.5h-0.9c-8.6,0-16.4,1.4-23.4,4.1s-12.9,6.6-17.8,11.5c-4.9,4.9-8.7,10.7-11.4,17.5c-2.7,6.7-4,14.1-4,22
			c0,7.8,1.4,14.9,4.3,21.4s6.8,12,11.9,16.7c5.1,4.6,11.1,8.2,18.1,10.8s14.6,3.8,22.9,3.8h0.7c0.2,0,0.5,0,0.7,0s0.4,0,0.7-0.1
			c5.4-0.1,10.8-0.7,16.2-1.6c5.4-0.9,10.8-2.1,16.4-3.7l2.2-30.9H986c-0.4,1.3-1,3-1.8,4.8c-0.8,1.8-1.7,3.8-2.8,5.8
			s-2.4,4.1-3.8,6.2c-1.5,2.1-3.2,4-5,5.9s-3.9,3.5-6.2,4.9c-2.3,1.5-4.8,2.6-7.5,3.4l-0.5,0.3c-1.3,0.2-2.4,0.4-3.5,0.5
			c-1.1,0.1-2,0.2-2.9,0.2c-4.3,0-8.2-1.1-11.7-3.3s-6.3-5.4-8.7-9.6c-2.4-4.2-4.2-9.3-5.5-15.4s-1.9-12.9-1.9-20.6
			c0-7.6,0.6-14.5,1.7-20.7C927,69.3,928.7,64.1,931,59.7z"/>
		
			<linearGradient id="SVGID_8_" gradientUnits="userSpaceOnUse" x1="1046.46" y1="166.1597" x2="1046.46" y2="-85.1768" gradientTransform="matrix(1 0 0 -1 0 196.46)">
			<stop  offset="0" style="stop-color:#0047A0"/>
			<stop  offset="1" style="stop-color:#1A1E34"/>
			<stop  offset="1" style="stop-color:#01051B"/>
		</linearGradient>
		<path class="st7" d="M1055.7,43.2h-33v1.2l9.2,15.9l-27.3,71.9l-12.6,14.3v1.2h31.6v-1.2l-13.9-14.7h-0.1l6-16.1h37.2l5.8,16.2
			l-11,14.6v1.2h53.1v-1.2l-11-14.6L1055.7,43.2z M1017.3,111.5l17.4-46.4l0.3,0.6l16.4,45.8L1017.3,111.5L1017.3,111.5z"/>
		
			<linearGradient id="SVGID_9_" gradientUnits="userSpaceOnUse" x1="1141.3002" y1="166.1597" x2="1141.3002" y2="-85.1768" gradientTransform="matrix(1 0 0 -1 0 196.46)">
			<stop  offset="0" style="stop-color:#0047A0"/>
			<stop  offset="1" style="stop-color:#1A1E34"/>
			<stop  offset="1" style="stop-color:#01051B"/>
		</linearGradient>
		<path class="st8" d="M1171.2,96.6c-2.8-2.8-6-5.2-9.6-7.4c-3.6-2.2-7.4-4.3-11.3-6.3c-2.9-1.5-5.8-3-8.8-4.5c-3-1.5-5.7-3.2-8.1-5
			c-2.4-1.8-4.4-3.7-6-5.8c-1.6-2.1-2.4-4.4-2.4-7c0-2,0.3-3.9,1.1-5.7c0.7-1.8,1.7-3.3,2.9-4.7c1.3-1.3,2.8-2.4,4.5-3.2
			c1.8-0.8,3.8-1.2,6-1.2c1.6,0,3.2,0,4.9,0.1c1.7,0.1,3.7,0.5,5.9,1.2c2.7,1.3,5.2,3.2,7.7,5.5c2.5,2.3,4.7,4.8,6.8,7.4
			c2,2.6,3.8,5.1,5.3,7.5c1.5,2.4,2.6,4.3,3.3,5.8h1l-2-26.6c-1.7-0.6-3.7-1.3-5.9-1.9c-2.2-0.6-4.5-1.2-7-1.7
			c-2.5-0.5-5-0.9-7.7-1.2c-2.7-0.3-5.3-0.5-7.9-0.5h-0.1c-5.9,0-11.4,0.6-16.4,1.8c-5.1,1.2-9.4,3-13.2,5.4
			c-3.7,2.4-6.7,5.5-8.8,9.2s-3.2,8.2-3.2,13.3c0,4.3,0.9,8,2.7,11.3s4.1,6.3,6.9,8.9c2.9,2.7,6.1,5.1,9.7,7.3
			c3.6,2.2,7.2,4.3,10.8,6.2c3.2,1.7,6.3,3.5,9.3,5.2c3,1.7,5.7,3.5,7.9,5.3c2.3,1.9,4.1,3.9,5.5,6c1.4,2.1,2.1,4.5,2.1,7
			c0,1.9-0.3,3.8-1,5.8s-1.7,3.7-3.1,5.3c-1.4,1.6-3.2,2.9-5.3,3.9c-2.1,1-4.6,1.5-7.6,1.5h-2c-3.5,0-6.8-0.8-9.8-2.5
			c-3.1-1.6-6-3.8-8.7-6.5s-5.3-5.8-7.8-9.2c-2.5-3.5-4.9-7-7.2-10.6h-1.2l2,27.7c1.8,0.7,3.9,1.4,6.3,2.1c2.4,0.7,5,1.2,7.8,1.7
			c2.8,0.5,5.8,0.9,9,1.2s6.3,0.4,9.6,0.4c6,0,11.6-0.6,16.8-1.8s9.7-3.1,13.4-5.6c3.8-2.5,6.8-5.7,8.9-9.7c2.2-3.9,3.3-8.6,3.3-14
			c0-4.7-0.8-8.8-2.5-12.3C1176.2,102.5,1174,99.3,1171.2,96.6z"/>
		
			<linearGradient id="SVGID_10_" gradientUnits="userSpaceOnUse" x1="1234.0049" y1="166.1597" x2="1234.0049" y2="-85.1768" gradientTransform="matrix(1 0 0 -1 0 196.46)">
			<stop  offset="0" style="stop-color:#0047A0"/>
			<stop  offset="1" style="stop-color:#1A1E34"/>
			<stop  offset="1" style="stop-color:#01051B"/>
		</linearGradient>
		<path class="st9" d="M1224.4,59.7c2.3-4.4,5.2-7.8,8.6-10.2c3.4-2.4,7.5-3.6,12.1-3.6c0.9,0,2,0.1,3.1,0.2s2.4,0.3,3.8,0.5
			l0.3,0.2c4.1,1.2,7.6,3.1,10.7,5.7c3.1,2.6,5.7,5.4,7.9,8.5c2.2,3.1,4,6.1,5.4,9.2s2.4,5.6,3,7.7h1.6l-2.2-31
			c-5.9-1.6-11.7-2.8-17.3-3.8c-5.6-0.9-11.3-1.4-17-1.5h-0.9c-8.6,0-16.4,1.4-23.4,4.1s-12.9,6.6-17.8,11.5
			c-4.9,4.9-8.7,10.7-11.4,17.5c-2.7,6.7-4,14.1-4,22c0,7.8,1.4,14.9,4.3,21.4s6.8,12,11.9,16.7c5.1,4.6,11.1,8.2,18.1,10.8
			s14.6,3.8,22.9,3.8h0.7c0.2,0,0.5,0,0.7,0s0.4,0,0.7-0.1c5.4-0.1,10.8-0.7,16.2-1.6c5.4-0.9,10.8-2.1,16.4-3.7l2.2-30.9h-1.6
			c-0.4,1.3-1,3-1.8,4.8c-0.8,1.8-1.7,3.8-2.8,5.8c-1.1,2-2.4,4.1-3.8,6.2c-1.5,2.1-3.2,4-5,5.9s-3.9,3.5-6.2,4.9
			c-2.3,1.5-4.8,2.6-7.5,3.4l-0.5,0.3c-1.3,0.2-2.4,0.4-3.5,0.5c-1.1,0.1-2,0.2-2.9,0.2c-4.3,0-8.2-1.1-11.7-3.3s-6.3-5.4-8.7-9.6
			c-2.4-4.2-4.2-9.3-5.5-15.4s-1.9-12.9-1.9-20.6c0-7.6,0.6-14.5,1.7-20.7C1220.4,69.3,1222.1,64.1,1224.4,59.7z"/>
		
			<linearGradient id="SVGID_11_" gradientUnits="userSpaceOnUse" x1="1342.3851" y1="166.1597" x2="1342.3851" y2="-85.1768" gradientTransform="matrix(1 0 0 -1 0 196.46)">
			<stop  offset="0" style="stop-color:#0047A0"/>
			<stop  offset="1" style="stop-color:#1A1E34"/>
			<stop  offset="1" style="stop-color:#01051B"/>
		</linearGradient>
		<path class="st10" d="M1392.8,73.8c-2.7-6.6-6.4-12.2-11.2-17s-10.6-8.5-17.3-11.1c-6.7-2.7-14.1-4-22.1-4s-15.4,1.3-22,4
			c-6.7,2.7-12.3,6.4-17.1,11.2c-4.7,4.8-8.4,10.5-11.1,17.1c-2.6,6.6-3.9,13.8-3.9,21.7c0,7.9,1.3,15.1,3.9,21.7
			c2.6,6.6,6.3,12.2,11.1,17s10.4,8.5,17.1,11.1c6.7,2.6,14,4,22,4c5.4,0,10.5-0.6,15.3-1.8s9.2-2.9,13.2-5.2
			c4-2.2,7.7-4.9,10.9-8.1c3.2-3.2,5.9-6.8,8.2-10.8s4-8.4,5.2-13.1c1.2-4.7,1.8-9.7,1.8-15C1396.7,87.6,1395.4,80.4,1392.8,73.8z
			 M1364.6,116.6c-0.9,6.1-2.4,11.3-4.3,15.5c-2,4.2-4.4,7.5-7.4,9.7s-6.6,3.3-10.7,3.3c-4.1,0-7.6-1.1-10.5-3.3
			c-2.9-2.2-5.4-5.5-7.3-9.7c-1.9-4.2-3.4-9.4-4.3-15.5c-0.9-6.1-1.4-13.1-1.4-20.9s0.5-14.8,1.4-21s2.3-11.4,4.2-15.6
			s4.3-7.5,7.3-9.7c2.9-2.2,6.5-3.4,10.6-3.4s7.7,1.1,10.7,3.3c3,2.2,5.5,5.5,7.4,9.7c1.9,4.3,3.4,9.5,4.3,15.6
			c0.9,6.1,1.4,13.2,1.4,21C1366,103.5,1365.6,110.5,1364.6,116.6z"/>
		
			<linearGradient id="SVGID_12_" gradientUnits="userSpaceOnUse" x1="815.6246" y1="166.1597" x2="815.6246" y2="-85.1768" gradientTransform="matrix(1 0 0 -1 0 196.46)">
			<stop  offset="0" style="stop-color:#0047A0"/>
			<stop  offset="1" style="stop-color:#1A1E34"/>
			<stop  offset="1" style="stop-color:#01051B"/>
		</linearGradient>
		<path class="st11" d="M865.8,129.3c-2.8,1.2-6.1,1.7-10,1.7c-3.9,0-7.8-1-11.7-2.9c-3.9-1.9-7.9-4.9-12-8.8c1.3-1.3,2.6-3,4.1-4.9
			c1.4-1.9,2.8-3.9,4.2-5.9c1.3-2,2.6-3.9,3.8-5.7c1.2-1.8,2.2-3.2,2.9-4.3l13.1-9.9v-0.9h-26.4v1.1l4.6,9.4
			c-0.2,1.1-0.7,2.5-1.4,4.2c-0.7,1.7-1.5,3.5-2.4,5.4c-0.9,1.8-1.8,3.6-2.7,5.3c-0.9,1.7-1.6,3-2.2,3.9c-1.7-1.8-3.5-3.8-5.3-6.1
			c-1.8-2.3-3.6-4.7-5.4-7.3c-1.8-2.6-3.6-5.2-5.4-8c-1.8-2.8-3.6-5.5-5.4-8.3c4.3-1.5,8.2-3.2,11.7-4.9s6.3-3.6,8.7-5.7
			c2.4-2,4.2-4.2,5.4-6.6c1.3-2.4,1.9-5,1.9-7.8c0-2.8-0.6-5.4-1.9-7.9c-1.3-2.4-3.1-4.6-5.5-6.3c-2.4-1.8-5.3-3.2-8.8-4.3
			c-3.4-1.1-7.3-1.7-11.7-1.8c-1.7-0.1-3.3-0.1-4.9,0c-1.6,0.1-3.2,0.2-4.7,0.4c-6.3,1-11.5,3.3-15.6,6.8c-4,3.5-6.7,8-7.9,13.3
			c-0.7,2.9-0.9,5.8-0.7,8.6c0.2,2.9,0.8,5.7,1.6,8.4s1.9,5.4,3.2,8c1.3,2.6,2.6,5.1,4,7.4c-3.9,1.6-7.4,3.4-10.6,5.5
			s-5.9,4.4-8.2,7s-4,5.4-5.3,8.5c-1.3,3-1.9,6.4-1.9,9.9c0,3.3,0.6,6.3,1.9,9.2c1.3,2.8,3.2,5.3,5.7,7.4c2.5,2.1,5.7,3.8,9.4,5
			s8.1,1.8,12.9,1.8c2.9,0,5.8-0.3,8.5-0.9s5.4-1.5,7.9-2.5c2.5-1.1,4.8-2.4,7-4c2.2-1.5,4.1-3.2,5.8-5.1c4.5,3.8,9.1,6.8,13.8,9.1
			c4.7,2.3,9.2,3.5,13.5,3.5c3.8,0,7.3-0.6,10.4-1.9s6.1-3,8.6-5.2c2.5-2.2,4.8-4.8,6.6-7.8s3.4-6.2,4.5-9.7l-0.7-0.9
			C871.1,126.3,868.6,128.1,865.8,129.3z M799.8,49.2c1.7-2.4,4-3.7,7-3.7c1.7,0,3.2,0.4,4.5,1.2c1.2,0.8,2.2,1.9,3.1,3.3
			c0.8,1.4,1.4,3.1,1.8,5.1s0.6,4.3,0.6,6.8c0,5.3-0.9,9.7-2.8,13.3s-4.3,6.7-7.4,9.1c-1.5-2.5-2.8-4.8-4-6.9
			c-1.2-2.2-2.1-4.2-2.9-6.2c-0.8-2-1.4-3.9-1.7-5.8c-0.4-1.9-0.6-3.7-0.6-5.6C797.3,55.2,798.1,51.7,799.8,49.2z M807.4,137.6
			c-2,0.8-4.2,1.2-6.7,1.2c-3,0-5.6-0.4-7.9-1.3s-4.2-2.1-5.9-3.6c-1.7-1.5-3-3.4-4-5.5c-1-2.1-1.7-4.5-2.1-7c-0.5-4-0.4-8,0.4-11.9
			c0.8-3.9,2.2-7.5,4.4-10.6c4.6,7,9.2,13.4,13.8,19.2c4.6,5.8,9.2,11.2,13.9,16.2C811.4,135.6,809.4,136.8,807.4,137.6z"/>
	</g>
</g>
</svg>
