<?xml version="1.0" encoding="utf-8"?>
<!-- Generator: Adobe Illustrator 24.0.3, SVG Export Plug-In . SVG Version: 6.00 Build 0)  -->
<svg version="1.1" id="Layer_1" xmlns="http://www.w3.org/2000/svg" xmlns:xlink="http://www.w3.org/1999/xlink" x="0px" y="0px"
	 viewBox="0 0 203.9 20.5" style="enable-background:new 0 0 203.9 20.5;" xml:space="preserve">
<style type="text/css">
	.st0{fill:#B6B6B6;}
</style>
<g>
	<g>
		<g>
			<rect x="150.3" y="9.3" class="st0" width="53.6" height="1"/>
		</g>
		<g>
			<rect y="9.3" class="st0" width="53.6" height="1"/>
		</g>
	</g>
</g>
<g>
	<path class="st0" d="M69.5,3v13h-1.7l-7-9.5h0c0,0.5,0,1,0,1.5c0,0.6,0,1.1,0,1.5V16h-2V3h1.7l7,9.5h0c0-0.5,0-1,0-1.5
		c0-0.6,0-1.1,0-1.5V3H69.5z"/>
	<path class="st0" d="M85.4,9.5c0,1-0.2,1.9-0.5,2.7c-0.3,0.8-0.8,1.5-1.4,2.1c-0.6,0.6-1.3,1.1-2.1,1.4c-0.8,0.3-1.7,0.5-2.6,0.5
		s-1.8-0.2-2.6-0.5c-0.8-0.3-1.5-0.8-2.1-1.4c-0.6-0.6-1.1-1.3-1.4-2.1c-0.3-0.8-0.5-1.7-0.5-2.7c0-1,0.2-1.9,0.5-2.7
		s0.8-1.5,1.4-2.1s1.3-1.1,2.1-1.4C77,3,77.9,2.8,78.8,2.8s1.8,0.2,2.6,0.5c0.8,0.3,1.5,0.8,2.1,1.4c0.6,0.6,1.1,1.3,1.4,2.1
		C85.3,7.6,85.4,8.5,85.4,9.5z M83.5,9.5c0-0.7-0.1-1.4-0.4-2c-0.2-0.6-0.6-1.1-1-1.5s-0.9-0.8-1.5-1s-1.2-0.4-1.8-0.4
		c-0.7,0-1.3,0.1-1.9,0.4s-1.1,0.6-1.5,1s-0.7,0.9-1,1.5c-0.2,0.6-0.4,1.3-0.4,2c0,0.7,0.1,1.4,0.4,2c0.2,0.6,0.6,1.1,1,1.5
		c0.4,0.4,0.9,0.8,1.5,1c0.6,0.2,1.2,0.4,1.9,0.4c0.7,0,1.3-0.1,1.8-0.4c0.6-0.2,1.1-0.6,1.5-1c0.4-0.4,0.7-0.9,1-1.5
		C83.4,10.9,83.5,10.2,83.5,9.5z"/>
	<path class="st0" d="M96.9,4.9h-4V16h-2V4.9h-4V3h10V4.9z"/>
	<path class="st0" d="M101,16h-2V3h2V16z"/>
	<path class="st0" d="M110.3,16.2c-0.9,0-1.8-0.2-2.6-0.5c-0.8-0.3-1.5-0.8-2.1-1.4c-0.6-0.6-1.1-1.3-1.4-2.1
		c-0.3-0.8-0.5-1.7-0.5-2.7c0-1,0.2-1.9,0.5-2.7c0.3-0.8,0.8-1.5,1.4-2.1s1.3-1.1,2.1-1.4c0.8-0.3,1.7-0.5,2.6-0.5
		c1,0,2,0.2,2.8,0.6c0.9,0.4,1.6,0.9,2.2,1.6l-1.5,1.3c-0.4-0.5-0.9-0.9-1.5-1.2c-0.6-0.3-1.3-0.4-2-0.4c-0.7,0-1.3,0.1-1.9,0.4
		s-1.1,0.6-1.5,1c-0.4,0.4-0.7,0.9-1,1.5c-0.2,0.6-0.4,1.3-0.4,2c0,0.7,0.1,1.4,0.4,2c0.2,0.6,0.6,1.1,1,1.5c0.4,0.4,0.9,0.8,1.5,1
		c0.6,0.2,1.2,0.4,1.9,0.4c0.8,0,1.5-0.2,2.1-0.5c0.6-0.3,1.1-0.7,1.6-1.3l1.5,1.3c-0.6,0.7-1.4,1.3-2.2,1.7
		C112.3,16,111.3,16.2,110.3,16.2z"/>
	<path class="st0" d="M119.8,16h-2V3h2V16z"/>
	<path class="st0" d="M131.3,13.1h-6.1l-1.3,2.9h-2.2l5.6-13h1.7l5.7,13h-2.2L131.3,13.1z M127.1,8.4c-0.4,0.9-0.8,1.9-1.1,2.8h4.6
		c-0.4-0.9-0.8-1.9-1.1-2.8c-0.4-0.9-0.7-1.9-1.1-2.8h0C127.9,6.5,127.5,7.5,127.1,8.4z"/>
	<path class="st0" d="M145.6,12.5c0,0.5-0.1,0.9-0.3,1.4c-0.2,0.5-0.4,0.8-0.8,1.2c-0.4,0.3-0.9,0.6-1.5,0.8
		c-0.6,0.2-1.3,0.3-2.2,0.3c-0.4,0-0.9,0-1.3-0.1s-0.9-0.2-1.3-0.3c-0.4-0.1-0.8-0.3-1.2-0.5s-0.7-0.4-1-0.6l1.1-1.6
		c0.5,0.4,1.1,0.7,1.7,0.9c0.6,0.2,1.3,0.3,2,0.3c0.5,0,0.9,0,1.2-0.2c0.3-0.1,0.6-0.2,0.9-0.4c0.2-0.2,0.4-0.4,0.5-0.6
		c0.1-0.2,0.2-0.5,0.2-0.7c0-0.5-0.2-0.9-0.7-1.3c-0.5-0.4-1.3-0.7-2.5-0.9c-1.5-0.3-2.6-0.9-3.3-1.5c-0.7-0.7-1-1.5-1-2.4
		c0-0.5,0.1-1,0.3-1.4c0.2-0.4,0.5-0.8,0.9-1.1c0.4-0.3,0.9-0.6,1.5-0.8c0.6-0.2,1.3-0.3,2-0.3c0.9,0,1.7,0.1,2.6,0.4
		c0.9,0.3,1.6,0.6,2.2,1.1l-1.1,1.6c-0.5-0.4-1.1-0.7-1.7-0.9c-0.6-0.2-1.3-0.3-2-0.3c-1,0-1.6,0.2-2.1,0.5
		c-0.4,0.3-0.6,0.7-0.6,1.2c0,0.2,0,0.4,0.1,0.6s0.3,0.4,0.5,0.6c0.2,0.2,0.6,0.4,1,0.5c0.4,0.2,0.9,0.3,1.5,0.4
		c0.8,0.2,1.5,0.4,2.1,0.7c0.6,0.3,1,0.6,1.4,0.9c0.3,0.3,0.6,0.7,0.8,1.1C145.6,11.6,145.6,12,145.6,12.5z"/>
</g>
</svg>
