<?xml version="1.0" encoding="utf-8"?>
<!-- Generator: Adobe Illustrator 24.0.3, SVG Export Plug-In . SVG Version: 6.00 Build 0)  -->
<svg version="1.1" id="Layer_1" xmlns="http://www.w3.org/2000/svg" xmlns:xlink="http://www.w3.org/1999/xlink" x="0px" y="0px"
	 viewBox="0 0 86.5 114.9" style="enable-background:new 0 0 86.5 114.9;" xml:space="preserve">
<style type="text/css">
	.st0{fill:#C4C4C4;}
</style>
<title>practica-icon</title>
<g>
	<path class="st0" d="M34.2,85.5c1.5-2.7,4.1-4.6,7.1-5.2c0-0.7,0.1-1.4,0.1-2c0-13,0-25.9,0-38.9c0.2-1.1-0.4-2.3-1.5-2.7
		c-1-0.6-1.9-1.5-2.5-2.5c-0.4-0.9-1.4-1.5-2.4-1.4c-3,0-6,0-9,0c-2.4,0-2.6,0.4-1.4,2.5c3,5,5.9,10,8.9,15c0.3,0.4,0.5,0.8,0.7,1.2
		c0.1,0.5,0.1,1,0,1.5c-0.5-0.3-1.1-0.4-1.4-0.8c-0.8-1.2-1.5-2.4-2.2-3.6c-2.5-4.2-5-8.3-7.4-12.5c-0.5-0.9-1-1.5-2.1-1
		c-0.1,0-0.1,0-0.2,0c-2.6-0.9-3.3,1.1-4.3,2.8c-2.7,4.7-5.5,9.4-8.4,14.1c-0.3,0.5-1,0.7-1.4,1c0-0.6-0.1-1.3,0.1-1.7
		c3.2-5.4,6.3-10.8,9.5-16.2c0.5-0.7,0.6-1.6,0.2-2.4c-1-1.9-0.3-4.2,1.5-5.3c1.8-1.1,4.1-0.7,5.5,0.9c0.5,0.5,1.2,0.9,2,1
		c3.2,0.1,6.4,0,9.6,0c0.8,0.1,1.5-0.4,1.8-1.1c1.6-3.3,5.6-4.7,8.8-3.1c1.3,0.7,2.4,1.7,3.1,3.1c0.3,0.8,1.1,1.3,2,1.2
		c3.2,0,6.3,0,9.5,0c0.7-0.1,1.4-0.4,2-0.9c1.4-1.7,3.8-2,5.7-0.8c1.8,1.2,2.4,3.6,1.4,5.4c-0.4,0.7-0.3,1.7,0.2,2.3
		c3.1,5.3,6.3,10.6,9.4,15.9c0.3,0.4,0.5,0.8,0.6,1.2c0,0.3-0.1,0.6-0.3,0.8c-0.3,0.1-0.6,0.1-0.9-0.1c-0.3-0.3-0.6-0.7-0.8-1.1
		c-3.1-5.2-6.2-10.4-9.2-15.6c-0.5-0.9-1.1-1.6-2.2-1.1c-0.1,0-0.1,0-0.2,0c-2.6-1-3.2,1.1-4.2,2.7L54,51.6
		c-0.2,0.4-0.4,0.8-0.7,1.1c-0.3,0.2-0.7,0.3-1.1,0.4C52,52.7,52,52.3,52,51.9c0.2-0.5,0.5-1,0.8-1.5c3-5.1,6.1-10.2,9.1-15.3
		c1.1-1.8,0.8-2.2-1.4-2.2c-3.2,0-6.4,0-9.6,0c-0.6,0.1-1.2,0.5-1.7,1c-1.1,1-2.2,2.1-3.2,3.2c-0.5,0.5-0.9,1.1-1,1.8
		c0,13.4,0,26.7,0,40.1c-0.1,0.8,0.5,1.6,1.3,1.8c0,0,0,0,0,0c2.5,0.8,4.7,2.5,5.9,4.8L34.2,85.5z M43.3,26.6
		c-2.4,0-4.3,1.9-4.4,4.3c0,2.4,1.9,4.4,4.4,4.4c2.4,0,4.4-1.9,4.4-4.4C47.4,28.5,45.6,26.7,43.3,26.6z"/>
	<path class="st0" d="M65.8,54.6H79c2.3,0,2.9,0.6,2.4,3c-1.7,8.6-10,14.1-18.6,12.4c-6.5-1.3-11.5-6.5-12.5-13
		c-0.3-1.8,0.2-2.4,2-2.4H65.8z"/>
	<path class="st0" d="M20.7,54.6h13.2c2.2,0,2.6,0.6,2.3,2.6c-1.3,7.5-7.8,13-15.4,13.1c-7.5,0.1-14-5.1-15.7-12.4
		c-0.6-2.7-0.1-3.3,2.7-3.3H20.7z"/>
	<path class="st0" d="M22.7,90.6c0.5-2.6,1.7-3.6,4.4-3.6c6.4,0,12.8,0,19.3,0c4.4,0,8.8,0,13.2,0c2.5,0,3.8,1.1,4.2,3.6L22.7,90.6z
		"/>
	<path class="st0" d="M43.6,28.9c0.5,0.6,1.2,1.2,1.4,1.9c0.1,0.9-0.6,1.8-1.5,1.9s-1.8-0.6-1.9-1.5c0-0.1,0-0.2,0-0.3
		c0.1-0.7,0.8-1.4,1.2-2L43.6,28.9z"/>
</g>
</svg>
