<?xml version="1.0" encoding="utf-8"?>
<!-- Generator: Adobe Illustrator 24.0.3, SVG Export Plug-In . SVG Version: 6.00 Build 0)  -->
<svg version="1.1" id="Layer_1" xmlns="http://www.w3.org/2000/svg" xmlns:xlink="http://www.w3.org/1999/xlink" x="0px" y="0px"
	 viewBox="0 0 86.5 114.9" style="enable-background:new 0 0 86.5 114.9;" xml:space="preserve">
<style type="text/css">
	.st0{fill:#C4C4C4;}
</style>
<title>practica-icon</title>
<g>
	<g id="g4ubd7_1_">
		<g>
			<path class="st0" d="M30.2,94.5c-1.9,0-3.8,0-5.6,0c-1.7,0-2.3-0.6-2.3-2.1c0-1.6,1-2,2.2-2c3.8,0,7.5,0,11.3,0
				c1.3,0,2.2,0.6,2.1,2.1c0,1.5-0.9,2-2.2,2C33.9,94.5,32,94.5,30.2,94.5z"/>
			<path class="st0" d="M30.2,84.2c1.9,0,3.8,0,5.6,0c1.3,0,2,0.5,2.1,1.9c0,1.4-0.7,2.1-1.9,2.1c-3.9,0.1-7.8,0.1-11.7,0
				c-1.5,0-2-0.8-1.9-2.3c0.1-1.4,0.9-1.8,2.1-1.8C26.3,84.2,28.3,84.2,30.2,84.2z"/>
			<path class="st0" d="M73.7,40.4c-0.6-0.5-0.8-1.1-0.8-1.9c0-2.5,0.2-5-0.2-7.5c-0.8-5.6-5-10.1-10.2-10.5c-2.7-0.2-5.5,0-8.3-0.1
				c-4.6,0-7.8,2.1-10.1,6c-1.5,2.6-1.9,5.5-1.8,8.6c-5-3.3-8.3-4.5-12.4-4.5C16.1,30.3,6.5,43.9,11.1,57c2.7,7.7,6.1,15,9.1,22.6
				c0.4,1.1,1.2,1.6,2.4,1.5c4.5,0,9.1-0.1,13.6,0c1.5,0,2.4-0.5,3-1.9c1.9-4.4,4-8.7,5.9-13.1c0.5-1.1,1.1-1.5,2.3-1.5
				c6.8,0.1,13.6,0.1,20.3,0c5.4,0,8.7-3.2,8.7-8.6c0-3.2,0-6.5,0-9.7C76.5,44,75.6,41.9,73.7,40.4z M45.7,37.3
				c0.2-2.1-0.2-4.3,0.3-6.4c1.1-4.6,4.1-7,8.8-7c1.9,0,3.8,0.1,5.6,0c4.9-0.4,7.8,3.2,8.7,6.7c0.7,2.5,0.3,5.1,0.4,7.6
				c0,1-0.7,0.7-1.2,0.7c-3.5,0-7.1,0-10.6,0V39c-3.4,0-6.8-0.1-10.2,0C46,39.2,45.6,38.7,45.7,37.3z M42.2,64.4
				c-1.9,4.2-3.9,8.4-5.8,12.6c-0.3,0.7-0.8,0.7-1.4,0.7c-1.8,0-3.6,0-5.5,0c-1.8,0-3.6,0-5.5,0c-0.8,0-1.1-0.3-1.4-0.9
				c-2.7-7.1-6-14-8.4-21.2c-2.3-6.7-0.1-14.1,5.5-18.3C25.4,33,33,32.8,38.9,37c1,0.7,2.4,1.3,2.9,2.2c0.7,1.4-1.3,1.7-1.8,2.8
				c-0.7,1.4-1.3,2.8-1.3,4.4c0,3.3,0,6.7,0,10c0,2.7,0.9,4.9,3,6.5C42.5,63.4,42.5,63.8,42.2,64.4z M73,57.2
				c-0.1,2.4-1.9,4.1-4.5,4.1c-7.2,0.1-14.5,0.1-21.7,0c-2.7,0-4.5-2-4.5-4.8c0-3.4,0-6.8,0-10.2c0-2.5,1.3-3.8,3.8-3.9
				c3.9-0.1,7.7,0,11.6,0v-0.1c3.9,0,7.7,0,11.6,0c2.3,0,3.8,1.3,3.8,3.5C73.1,49.7,73.1,53.4,73,57.2z"/>
		</g>
	</g>
	<path class="st0" d="M61.6,49.5c0,1.4-0.8,2.6-1.9,3.2v5c0,0.5-0.4,0.9-0.9,0.9H57c-0.5,0-0.9-0.4-0.9-0.9v-5
		c-1.1-0.6-1.9-1.8-1.9-3.2c0-2,1.7-3.7,3.7-3.7C59.9,45.8,61.6,47.5,61.6,49.5z"/>
</g>
</svg>
