<?xml version="1.0" encoding="utf-8"?>
<!-- Generator: Adobe Illustrator 24.0.3, SVG Export Plug-In . SVG Version: 6.00 Build 0)  -->
<svg version="1.1" id="Layer_1" xmlns="http://www.w3.org/2000/svg" xmlns:xlink="http://www.w3.org/1999/xlink" x="0px" y="0px"
	 viewBox="0 0 24.83 24.94" style="enable-background:new 0 0 24.83 24.94;" xml:space="preserve">
<style type="text/css">
	.st0{fill:#FFFFFF;}
</style>
<g>
	<path class="st0" d="M19.76,15.98c-2.27,0.11-3.13,1.73-3.67,3.56C10.91,18.03,6.81,13.6,5.3,8.75c1.84-0.54,3.45-1.4,3.45-3.67
		c0.11-1.84-1.4-3.35-3.24-3.24c-3.89,0-4.32,4.75-3.35,7.56c1.84,5.61,8.2,11.98,13.93,13.49c2.81,0.76,6.8,0,6.91-3.56
		C23.11,17.49,21.6,15.98,19.76,15.98z M15.01,3.35c-0.97-0.22-0.54-1.73,0.43-1.4c3.24,0.86,5.83,3.35,6.69,6.58
		c0.22,0.97-1.19,1.4-1.51,0.43C19.87,6.26,17.82,4.11,15.01,3.35z M14.69,6.37c-0.97-0.32-0.54-1.73,0.43-1.51
		c1.94,0.54,3.56,2.05,4.1,3.99c0.22,1.08-1.3,1.4-1.51,0.43C17.28,7.88,16.2,6.7,14.69,6.37z M19.65,14.25
		c2.91-0.11,5.18,2.27,5.18,5.07c-0.11,4.75-5.18,6.37-9.28,5.29C9.29,23,2.6,16.09,0.55,10.04C-0.86,5.83,0.33,0.11,5.4,0
		c2.91-0.11,5.18,2.27,5.18,5.07c-0.11,2.05-1.3,3.89-3.02,4.75c1.19,2.91,4.53,6.26,7.34,7.45C15.88,15.44,17.71,14.25,19.65,14.25
		z"/>
</g>
</svg>
